<?xml version='1.0' encoding='utf-8'?>
<svg xmlns="http://www.w3.org/2000/svg" enable-background="new 0 0 3000 3000" version="1.1" viewBox="0 0 3e3 3e3"> <rect width="3e3" height="3e3" fill="#FECB88"/> <rect x="571.8" y="392.1" width="2041.2" height="2400.6" opacity=".15"/> <rect x="479.4" y="299.7" width="2041.2" height="2400.6" fill="#F1F2F2"/> <rect x="479.4" y="299.7" width="504.3" height="2400.6" fill="#13122C"/> <rect x="983.7" y="299.7" width="1536.8" height="379.6" fill="#A39FCE"/> <rect x="570.5" y="369" width="322.2" height="337.1" fill="#fff"/> <g fill="#262262"> <circle cx="731.6" cy="484.2" r="89.7"/> <path d="m662.2 562.6c18.5 16.3 42.7 26.2 69.3 26.2s50.9-9.9 69.3-26.2c40.4 23.8 67.5 67.7 67.5 118h-273.5c0-50.2 27-94.2 67.4-118z"/> </g> <g fill="#EC1D24" opacity=".45"> <path d="m1250.2 1945.1c0-143.7 90.1-267.3 261.4-267.3 64.8 0 116.2 19.4 170.5 66.3 20.1 18.6 22.3 51.4 2.2 72.2-20.1 17.9-50.6 15.6-68.5-2.2-30.5-32-61.8-41-104.3-41-114.7 0-169.8 81.2-169.8 172 0 92.3 54.4 177.2 169.8 177.2 42.4 0 81.9-17.1 116.2-47.7 23.1-17.9 55.1-8.9 68.5 8.9 11.9 16.4 17.9 43.9-8.2 70-52.1 48.4-114.7 58.1-176.5 58.1-180.1 0.1-261.3-122.8-261.3-266.5z"/> <path d="m1961.3 2173-196.6-411.8c-29-58.8 58.8-107.2 91.6-45.4l66.3 149.7 85.6 196.6 84.1-196.6 66.3-149.7c29.8-56.6 116.2-20.9 90.8 41l-189.8 416.2c-17.1 46.9-70 58.1-98.3 0z"/> </g> <g fill="#B5CDE7"> <path d="m857.1 763h-251c-4.4 0-8-3.6-8-8s3.6-8 8-8h251c4.4 0 8 3.6 8 8s-3.6 8-8 8z"/> <path d="m909.8 811h-356.4c-4.4 0-8-3.6-8-8s3.6-8 8-8h356.4c4.4 0 8 3.6 8 8s-3.6 8-8 8z"/> <path d="m857.1 859h-251c-4.4 0-8-3.6-8-8s3.6-8 8-8h251c4.4 0 8 3.6 8 8s-3.6 8-8 8z"/> </g> <rect x="479.4" y="962.8" width="504.3" height="318" fill="#2A2863"/> <circle cx="557.4" cy="1944.9" r="16.8" fill="#FFDE17"/> <path d="m904.3 1955.6h-285.5c-5.9 0-10.7-4.8-10.7-10.7s4.8-10.7 10.7-10.7h285.5c5.9 0 10.7 4.8 10.7 10.7s-4.8 10.7-10.7 10.7z" fill="#B4E3F6"/> <circle cx="557.4" cy="2008.9" r="16.8" fill="#FFDE17"/> <path d="m904.3 2019.6h-285.5c-5.9 0-10.7-4.8-10.7-10.7s4.8-10.7 10.7-10.7h285.5c5.9 0 10.7 4.8 10.7 10.7s-4.8 10.7-10.7 10.7z" fill="#B4E3F6"/> <circle cx="557.4" cy="2072.9" r="16.8" fill="#FFDE17"/> <path d="m904.3 2083.6h-285.5c-5.9 0-10.7-4.8-10.7-10.7s4.8-10.7 10.7-10.7h285.5c5.9 0 10.7 4.8 10.7 10.7s-4.8 10.7-10.7 10.7z" fill="#B4E3F6"/> <circle cx="557.4" cy="2136.9" r="16.8" fill="#FFDE17"/> <path d="m904.3 2147.6h-285.5c-5.9 0-10.7-4.8-10.7-10.7s4.8-10.7 10.7-10.7h285.5c5.9 0 10.7 4.8 10.7 10.7s-4.8 10.7-10.7 10.7z" fill="#B4E3F6"/> <g fill="#B4E3F6"> <path d="m911.2 1044.8h-359.3c-4.8 0-8.8-3.9-8.8-8.8 0-4.8 3.9-8.8 8.8-8.8h359.3c4.8 0 8.8 3.9 8.8 8.8s-3.9 8.8-8.8 8.8z"/> <path d="m859.2 1087.8h-307.3c-4.8 0-8.8-3.9-8.8-8.8 0-4.8 3.9-8.8 8.8-8.8h307.3c4.8 0 8.8 3.9 8.8 8.8s-3.9 8.8-8.8 8.8z"/> <path d="m911.2 1130.8h-359.3c-4.8 0-8.8-3.9-8.8-8.8 0-4.8 3.9-8.8 8.8-8.8h359.3c4.8 0 8.8 3.9 8.8 8.8s-3.9 8.8-8.8 8.8z"/> <path d="m859.2 1173.8h-307.3c-4.8 0-8.8-3.9-8.8-8.8 0-4.8 3.9-8.8 8.8-8.8h307.3c4.8 0 8.8 3.9 8.8 8.8s-3.9 8.8-8.8 8.8z"/> <path d="m911.2 1216.8h-359.3c-4.8 0-8.8-3.9-8.8-8.8 0-4.8 3.9-8.8 8.8-8.8h359.3c4.8 0 8.8 3.9 8.8 8.8s-3.9 8.8-8.8 8.8z"/> </g> <g fill="#B4E3F6"> <path d="m911.2 1398h-359.3c-4.8 0-8.8-3.9-8.8-8.8 0-4.8 3.9-8.8 8.8-8.8h359.3c4.8 0 8.8 3.9 8.8 8.8s-3.9 8.8-8.8 8.8z"/> <path d="m859.2 1441h-307.3c-4.8 0-8.8-3.9-8.8-8.8 0-4.8 3.9-8.8 8.8-8.8h307.3c4.8 0 8.8 3.9 8.8 8.8s-3.9 8.8-8.8 8.8z"/> <path d="m911.2 1484h-359.3c-4.8 0-8.8-3.9-8.8-8.8 0-4.8 3.9-8.8 8.8-8.8h359.3c4.8 0 8.8 3.9 8.8 8.8s-3.9 8.8-8.8 8.8z"/> <path d="m859.2 1527h-307.3c-4.8 0-8.8-3.9-8.8-8.8 0-4.8 3.9-8.8 8.8-8.8h307.3c4.8 0 8.8 3.9 8.8 8.8s-3.9 8.8-8.8 8.8z"/> <path d="m911.2 1570h-359.3c-4.8 0-8.8-3.9-8.8-8.8 0-4.8 3.9-8.8 8.8-8.8h359.3c4.8 0 8.8 3.9 8.8 8.8s-3.9 8.8-8.8 8.8z"/> </g> <circle cx="557.4" cy="2343.7" r="16.8" fill="#ED1C24"/> <path d="m904.3 2354.4h-285.5c-5.9 0-10.7-4.8-10.7-10.7s4.8-10.7 10.7-10.7h285.5c5.9 0 10.7 4.8 10.7 10.7s-4.8 10.7-10.7 10.7z" fill="#B4E3F6"/> <circle cx="557.4" cy="2407.7" r="16.8" fill="#ED1C24"/> <path d="m904.3 2418.4h-285.5c-5.9 0-10.7-4.8-10.7-10.7s4.8-10.7 10.7-10.7h285.5c5.9 0 10.7 4.8 10.7 10.7s-4.8 10.7-10.7 10.7z" fill="#B4E3F6"/> <circle cx="557.4" cy="2471.7" r="16.8" fill="#ED1C24"/> <path d="m904.3 2482.4h-285.5c-5.9 0-10.7-4.8-10.7-10.7s4.8-10.7 10.7-10.7h285.5c5.9 0 10.7 4.8 10.7 10.7s-4.8 10.7-10.7 10.7z" fill="#B4E3F6"/> <circle cx="557.4" cy="2535.7" r="16.8" fill="#ED1C24"/> <path d="m904.3 2546.4h-285.5c-5.9 0-10.7-4.8-10.7-10.7s4.8-10.7 10.7-10.7h285.5c5.9 0 10.7 4.8 10.7 10.7s-4.8 10.7-10.7 10.7z" fill="#B4E3F6"/> <g fill="#F1F2F2"> <path d="m1356.3 425h-257.9c-3 0-5.5 2.4-5.5 5.5 0 3 2.4 5.5 5.5 5.5h257.9c3 0 5.5-2.4 5.5-5.5s-2.4-5.5-5.5-5.5z"/> <path d="m1356.3 471h-257.9c-3 0-5.5 2.4-5.5 5.5 0 3 2.4 5.5 5.5 5.5h257.9c3 0 5.5-2.4 5.5-5.5s-2.4-5.5-5.5-5.5z"/> <path d="m1483.3 517h-384.9c-3 0-5.5 2.4-5.5 5.5 0 3 2.4 5.5 5.5 5.5h384.9c3 0 5.5-2.4 5.5-5.5s-2.4-5.5-5.5-5.5z"/> <path d="m1483.3 563h-384.9c-3 0-5.5 2.4-5.5 5.5 0 3 2.4 5.5 5.5 5.5h384.9c3 0 5.5-2.4 5.5-5.5s-2.4-5.5-5.5-5.5z"/> </g> <g fill="#94BAC9"> <path d="m2312.3 859h-1154.8c-3 0-5.5 2.4-5.5 5.5 0 3 2.4 5.5 5.5 5.5h1154.8c3 0 5.5-2.4 5.5-5.5s-2.5-5.5-5.5-5.5z"/> <path d="m2312.3 914.8h-1154.8c-3 0-5.5 2.4-5.5 5.5 0 3 2.4 5.5 5.5 5.5h1154.8c3 0 5.5-2.4 5.5-5.5s-2.5-5.5-5.5-5.5z"/> <path d="m2312.3 970.5h-1154.8c-3 0-5.5 2.4-5.5 5.5 0 3 2.4 5.5 5.5 5.5h1154.8c3 0 5.5-2.4 5.5-5.5 0-3-2.5-5.5-5.5-5.5z"/> <path d="m2312.3 1026.3h-1154.8c-3 0-5.5 2.4-5.5 5.5 0 3 2.4 5.5 5.5 5.5h1154.8c3 0 5.5-2.4 5.5-5.5s-2.5-5.5-5.5-5.5z"/> <path d="m1707.6 1082h-550.1c-3 0-5.5 2.4-5.5 5.5 0 3 2.4 5.5 5.5 5.5h550.1c3 0 5.5-2.4 5.5-5.5 0-3-2.5-5.5-5.5-5.5z"/> <path d="m2312.3 1233h-1154.8c-3 0-5.5 2.4-5.5 5.5 0 3 2.4 5.5 5.5 5.5h1154.8c3 0 5.5-2.4 5.5-5.5 0-3-2.5-5.5-5.5-5.5z"/> <path d="m2312.3 1288.8h-1154.8c-3 0-5.5 2.4-5.5 5.5 0 3 2.4 5.5 5.5 5.5h1154.8c3 0 5.5-2.4 5.5-5.5s-2.5-5.5-5.5-5.5z"/> <path d="m2312.3 1344.5h-1154.8c-3 0-5.5 2.4-5.5 5.5 0 3 2.4 5.5 5.5 5.5h1154.8c3 0 5.5-2.4 5.5-5.5 0-3-2.5-5.5-5.5-5.5z"/> <path d="m2312.3 1400.3h-1154.8c-3 0-5.5 2.4-5.5 5.5 0 3 2.4 5.5 5.5 5.5h1154.8c3 0 5.5-2.4 5.5-5.5s-2.5-5.5-5.5-5.5z"/> <path d="m1707.6 1456.1h-550.1c-3 0-5.5 2.4-5.5 5.5 0 3 2.4 5.5 5.5 5.5h550.1c3 0 5.5-2.4 5.5-5.5s-2.5-5.5-5.5-5.5z"/> </g> <g fill="#F1F2F2"> <path d="m2139 573.9h257.9c3 0 5.5-2.4 5.5-5.5 0-3-2.4-5.5-5.5-5.5h-257.9c-3 0-5.5 2.4-5.5 5.5s2.5 5.5 5.5 5.5z"/> <path d="m2139 527.9h257.9c3 0 5.5-2.4 5.5-5.5 0-3-2.4-5.5-5.5-5.5h-257.9c-3 0-5.5 2.4-5.5 5.5s2.5 5.5 5.5 5.5z"/> <path d="m2012 481.9h384.9c3 0 5.5-2.4 5.5-5.5 0-3-2.4-5.5-5.5-5.5h-384.9c-3 0-5.5 2.4-5.5 5.5s2.5 5.5 5.5 5.5z"/> <path d="m2012 435.9h384.9c3 0 5.5-2.4 5.5-5.5 0-3-2.4-5.5-5.5-5.5h-384.9c-3 0-5.5 2.4-5.5 5.5s2.5 5.5 5.5 5.5z"/> </g> <g fill="#94BAC9"> <path d="m2054.4 2610.2h257.9c3 0 5.5-2.4 5.5-5.5 0-3-2.4-5.5-5.5-5.5h-257.9c-3 0-5.5 2.4-5.5 5.5 0.1 3 2.5 5.5 5.5 5.5z"/> <path d="m2054.4 2564.2h257.9c3 0 5.5-2.4 5.5-5.5 0-3-2.4-5.5-5.5-5.5h-257.9c-3 0-5.5 2.4-5.5 5.5 0.1 3 2.5 5.5 5.5 5.5z"/> <path d="m1927.4 2518.2h384.9c3 0 5.5-2.4 5.5-5.5 0-3-2.4-5.5-5.5-5.5h-384.9c-3 0-5.5 2.4-5.5 5.5 0.1 3 2.5 5.5 5.5 5.5z"/> <path d="m1927.4 2472.2h384.9c3 0 5.5-2.4 5.5-5.5 0-3-2.4-5.5-5.5-5.5h-384.9c-3 0-5.5 2.4-5.5 5.5 0.1 3 2.5 5.5 5.5 5.5z"/> </g> </svg>