<?xml version='1.0' encoding='utf-8'?>
<svg xmlns="http://www.w3.org/2000/svg" version="1.1" viewBox="0 0 1080 2132"> <g fill="#40beae"> <path d="m78.999 582.42c-0.1525 0-0.29876 0.06056-0.40659 0.1684-0.10784 0.10786-0.16841 0.2541-0.16841 0.4066l9.99e-4 906c0 0.3176 0.25744 0.575 0.575 0.575l906 9e-4c0.1525 0 0.29874-0.0605 0.4066-0.1683 0.10784-0.1078 0.1684-0.2542 0.1684-0.4066l-1e-3 -906c0-0.31757-0.25743-0.575-0.575-0.575l-906-1e-3z"/> </g> <g fill="#fdd0a4"> <path d="m434.41 916.21c5.881 4.032 10.812 8.9626 14.793 14.793 2.1367 3.5503 4.1392 7.2485 6.0096 11.095 5.0766 14.931 5.539 30.031 1.3868 45.303-2.1135 6.6087-3.6547 13.388-4.6227 20.34-0.50947 13.159 4.1133 23.945 13.868 32.36 1.7242 2.3326 4.0356 3.8729 6.9341 4.6228 0.07306 4.0523-1.6216 7.2882-5.085 9.7077-4.5341 2.6545-9.3113 4.658-14.331 6.0097-0.61663 2.4658-0.61663 4.9306 0 7.3964 1.2038 0.541 2.2826 1.1567 3.2359 1.849-12.937 1.4683-25.572 3.9332-37.907 7.3965h-4.6228c-0.16363 3.4523 0.14429 6.8427 0.92462 10.17 1.8759 10.237 6.8065 18.558 14.793 24.963-1.4451 13.003-8.6881 20.399-21.727 22.189-6.1224-0.8755-12.132-2.2622-18.029-4.1604-7.9354-4.4119-15.949-8.5725-24.038-12.481 0.07953-0.9209-0.22931-1.691-0.92456-2.3116-19.754-12.356-35.009-28.844-45.765-49.464-2.1921-4.0709-3.5789-8.3856-4.1605-12.944 2.389-3.5706 2.389-7.2688 0-11.095-0.63984 0.4853-1.1021 1.102-1.3868 1.8491-1.2537-0.8137-2.6405-1.1224-4.1605-0.9246v2.7737c-2.4842 0.1516-4.95-0.0027-7.3964-0.4623 1.9712-0.8505 3.8203-1.9295 5.5473-3.2359-2.6933-2.22-2.3845-3.4523 0.92456-3.6983 0.29767-2.0543-0.31897-3.75-1.8491-5.0849 1.1612-0.3856 1.778-1.1558 1.8491-2.3114 0.57044-0.1027 1.0327-0.4107 1.3868-0.9246 0.15448-1.3868 0.30786-2.7737 0.46234-4.1605-1.4257-4.6801-2.3503-9.4573-2.7737-14.331 0.07856-1.6947 0.69526-2.9272 1.8491-3.6983 0.7406 1.4257 1.0485 2.966 0.92462 4.6228 23.231-2.3068 40.182-13.709 50.85-34.209 9.4193-1.4303 18.665-3.7417 27.737-6.9341 24.033-10.939 39.134-29.276 45.303-55.011z"/> </g> <path d="m448.28 975.38c-8.4588-0.76733-16.934-1.3839-25.425-1.849-4.8011 0.10817-9.5783 0.41602-14.331 0.92457 4.0773-2.2412 8.5457-3.1657 13.406-2.7737 9.5405 0.5048 18.324 1.7372 26.35 3.6981z"/> <path d="m448.28 975.38c-0.2182 4.2216-2.3761 6.6874-6.4719 7.3965-11.739-3.8054-23.758-5.1922-36.058-4.1605-2.7089 1.2185-5.4826 1.8353-8.321 1.8491 3.3793-2.6136 7.0775-4.6162 11.095-6.0095 4.7522-0.50855 9.5294-0.8164 14.331-0.92457 8.4912 0.46507 16.966 1.0817 25.425 1.849z"/> <path d="m318.48 979.07c0.07097 0 0.1419 1e-4 0.21276 4e-4h-4.9e-4c-0.07067-3e-4 -0.14145-4e-4 -0.21227-4e-4 -0.07102 0-0.1421 1e-4 -0.21327 4e-4 0.07117-3e-4 0.14225-4e-4 0.21327-4e-4zm-10.348 1.0782c1.6689 0 3.3895 0.2604 5.1618 0.7813-1.7723-0.5209-3.4929-0.7813-5.1618-0.7813-1.669 0-3.2862 0.2604-4.8517 0.7813h-4e-5c1.5655-0.5209 3.1828-0.7813 4.8517-0.7813zm-8.7094 7.7214h-0.07957zm-96.063 97.862c0.2121 0 0.40394 0.1851 0.57547 0.5553-0.17153-0.3702-0.36337-0.5553-0.57547-0.5553-0.21209 0-0.44448 0.1851-0.69714 0.5553 0.25266-0.3702 0.48505-0.5553 0.69714-0.5553zm28.113 13.541-0.00192 9e-4 -3.6982-9e-4zm109.87-254.32c-7.827 0-15.636 0.33094-23.426 0.9929-0.15587-0.027-0.30302-0.0405-0.44148-0.0405-0.67627 0-1.1451 0.3217-1.4076 0.965-17.32 3.7282-33.037 10.971-47.152 21.727-25.827 26.069-44.164 56.425-55.011 91.069-7.3641 17.435-11.987 35.619-13.868 54.549-0.25702 23.731-0.10266 47.461 0.46225 71.191-2.9956 6.6483-5.9227 13.429-8.7832 20.34-6.9018 11.032-13.066 22.435-18.491 34.208-5.2826 7.5905-10.368 15.295-15.255 23.114-4.118 4.3203-6.2754 9.5588-6.4718 15.717-3.4282 14.172-4.5068 28.656-3.2359 43.454 0.17212 2.3447 0.63443 4.5015 1.3868 6.4717 3.2324 13.242 8.9338 25.262 17.104 36.058 0.30813-3.3904 0.61639-6.7798 0.92453-10.17 0.25738-0.8469 0.71966-1.4627 1.3868-1.8491 1.3348 14.379 6.7281 27.014 16.18 37.907 4.6801 4.8364 9.4573 9.4592 14.331 13.868 0.10266 0.5705 0.41052 1.0327 0.92456 1.3869-1.0642 5.9837-1.9887 11.993-2.7736 18.029 2.635-12.164 5.4087-24.337 8.321-36.52-0.85148-1.8827-1.1598-3.8813-0.92612-5.9952h-0.00235c0.00131-0.0048 0.00262-0.0095 0.00393-0.0143v-5.5474c3.8933-21.125 8.9783-42.082 15.255-62.87 6.5606-18.973 16.268-35.923 29.123-50.851 4.028-3.11 8.0348-6.192 12.019-9.2449h-0.00293c-0.0556 0.0082-0.10941 0.0122-0.16135 0.0122-0.32483 0-0.57843-0.1581-0.75958-0.4751 2.9714-2.5527 6.053-4.864 9.2455-6.9341 6.5042-6.3498 12.514-13.13 18.029-20.34 15.904-21.365 23.763-45.403 23.576-72.115v-6.4718h-7.3964c1.9702 0.7526 4.1272 1.2148 6.4719 1.3868-1.4929 0.2304-2.956 0.3455-4.3895 0.3455-5.436 0-10.445-1.6563-15.026-4.9683-2.9095-3.6806-5.9911-7.2245-9.2455-10.632-1.1862-2.0619-2.1108-4.2187-2.7737-6.4719-1.6041-4.5083-2.8374-9.1311-3.6982-13.868-1.9508-9.891 1.1307-17.595 9.2455-23.114 2.0682-0.35004 4.0108-0.52509 5.8275-0.52509 10.933 0 17.311 6.3384 19.135 19.016 0.7406 1.4257 1.0485 2.966 0.92462 4.6228 23.231-2.3068 40.182-13.709 50.85-34.209 9.4193-1.4303 18.665-3.7417 27.737-6.9341 24.033-10.939 39.134-29.276 45.303-55.011 5.881 4.032 10.812 8.9626 14.793 14.793 2.1367 3.5503 4.1392 7.2485 6.0096 11.095 5.0766 14.931 5.539 30.031 1.3868 45.303-2.1135 6.6087-3.6547 13.388-4.6227 20.34 21.421-7.8606 35.598-22.653 42.529-44.379 1.3165-1.8629 1.9324-4.0199 1.8491-6.4719 4.0896-13.757 3.4772-27.309-1.8391-40.655h-0.0053c-0.0016-0.00845-0.00317-0.01678-0.00476-0.0252-8.701-23.644-25.651-36.125-50.85-37.444-17.331-13.286-36.744-22.069-58.239-26.348h-0.0042c-0.00112-5.6e-4 -0.00225-0.00106-0.00338-0.00153-12.226-3.8622-24.861-6.3277-37.907-7.3965-2.0544-0.04545-4.1075-0.06825-6.1594-0.06825z"/> <g fill="#2c0c08"> <path d="m417.77 1012.4c-0.30792-0.6167-0.6167-1.2325-0.92462-1.8492h-0.92456c-3.6547-4.4404-3.6547-8.909 0-13.406-5.5889 0.2627-11.136 1.0337-16.642 2.3114-1.8344 0.10826-3.3746-0.50844-4.6228-1.8491 1.6882-0.38816 3.5374-0.38816 5.5473 0 0.02594-1.9249-0.59076-3.6205-1.8491-5.085 1.7631-0.12207 3.15 0.6489 4.1605 2.3114 2.3261-1.6827 4.1753-3.8397 5.5474-6.4719 0.85327 1.164 1.6244 2.3965 2.3113 3.6982 2.2411-0.8534 4.0902-2.2402 5.5473-4.1605 0.87647-0.44653 1.801-0.6001 2.7737-0.4623-0.24871 1.7835 0.21363 3.3238 1.3868 4.6228 1.9637-1.0373 3.6584-2.4242 5.085-4.1605 1.9221-0.7471 3.7713-0.59265 5.5473 0.4623-4.1216 6.7705-2.5804 8.1573 4.6228 4.1605l4.1605-4.1605c-1.9434 6.3285-6.4117 9.718-13.406 10.17-0.84228 4.1586-2.2291 8.1656-4.1605 12.019-1.0263 1.4211-2.4131 2.0368-4.1605 1.8492z"/> </g> <g fill="#fdd0a4"> <path d="m394.66 1001.3c-5.6602-1.4192-8.7426 0.7388-9.2455 6.4719-0.74702 0.2848-1.3637 0.7471-1.8491 1.3869 1.2324 1.2324 1.2324 2.4657 0 3.6981 1.1862 2.4908 1.4941 4.9557 0.92456 7.3965 0.77667 1.0826 1.5468 2.1616 2.3114 3.2359 0.30786-0.30784 0.6167-0.6167 0.92456-0.92454v3.6983c1.3979 0.6998 2.6313 1.6244 3.6982 2.7737 0.23022-1.0392 0.6925-1.9638 1.3868-2.7737 1.4506 1.1223 2.2208 2.6636 2.3114 4.6228 2.4575-1.104 3.5355-0.1795 3.236 2.7737 2.119-0.2367 4.1226 0.071 6.0096 0.9244 0.61663-0.6167 1.2324-1.2324 1.849-1.849 1.789 1.4811 3.7917 2.5601 6.0096 3.236-0.30793 0.3077-0.6167 0.6165-0.92457 0.9244 1.6946 0.4623 2.7736 1.5413 3.236 3.236 0.3078-0.6167 0.61663-1.2324 0.92455-1.8492 1.986 1.3656 3.2192 3.2148 3.6982 5.5474 0.5788-2.3031 1.349-2.3031 2.3114 0 1.4515-0.1793 2.8383-0.1793 4.1605 0 1.1964 1.2518 1.3498 2.4852 0.46228 3.6982 1.4284 0.8802 2.9697 1.188 4.6227 0.9245-2.5914 5.8376-6.1362 11.077-10.632 15.718-1.0226-2.7876-2.1006-5.5611-3.236-8.321-1.6984 3.433-3.0852 3.433-4.1605 0-0.92457 0.3078-1.8491 0.6167-2.7737 0.9245-2.157-1.849-4.315-3.6982-6.4719-5.5473-0.30786 0.308-0.6167 0.6167-0.92456 0.9247-2.7783-0.86-5.2441-2.709-7.3964-5.5474-2.6489 0.5001-4.4979-0.7332-5.5473-3.6983-0.30786 0.3079-0.6167 0.6167-0.92456 0.9246-3.334-3.4106-6.8778-6.6466-10.632-9.7079-2.0756-2.0755-3.7712-3.7712-5.085-5.0849-1.9379-1.1235-1.7834-1.8944 0.46228-2.3114-0.92455-1.5413-1.8491-3.0816-2.7737-4.6229 0.7655-0.84595 1.6901-1.4618 2.7737-1.8491-0.85431-0.7859-0.85431-1.7105 0-2.7736-2.0775-2.0646-1.4617-3.6058 1.849-4.6229-0.7008-1.261-0.23845-2.34 1.3868-3.2358 0.30785-1.8492 0.6167-3.6982 0.92455-5.5474 2.4279-0.51686 4.7393-1.5949 6.9342-3.2358 3.5669-0.7489 6.9563-0.59461 10.17 0.46215z"/> </g> <g fill="#f8e4ce"> <path d="m415.92 1010.5c-0.05542 0.50206-0.36334 0.81005-0.9245 0.9247-6.4562-2.9188-12.62-6.3092-18.491-10.17 0.9245-0.6167 1.8491-1.2324 2.7737-1.8491 5.5057-1.2777 11.053-2.0487 16.642-2.3114-3.6547 4.497-3.6547 8.9656 0 13.406z"/> </g> <g fill="#d8b88d"> <path d="m416.85 1010.5c-1.0447-1.678-1.6605-3.5271-1.8491-5.5472 2.2846-0.24695 3.8258 0.67775 4.6227 2.7736-0.34032 1.5486-1.2648 2.4732-2.7737 2.7736z"/> </g> <g fill="#fdd0a4"> <path d="m394.66 1001.3h1.8491c5.8709 3.861 12.035 7.2514 18.491 10.17 0.56116-0.11465 0.86908-0.42264 0.9245-0.9247h0.92456c0.30792 0.6167 0.6167 1.2325 0.92462 1.8492 4.8556 3.4725 9.0162 7.7866 12.481 12.944 2.8162 7.7182 2.9697 15.422 0.46228 23.114-1.6531 0.2635-3.1943-0.0443-4.6227-0.9245 0.88757-1.213 0.73412-2.4464-0.46228-3.6982-1.3222-0.1793-2.709-0.1793-4.1605 0-0.96241-2.3031-1.7326-2.3031-2.3114 0-0.47893-2.3326-1.7122-4.1818-3.6982-5.5474-0.30792 0.6168-0.61675 1.2325-0.92455 1.8492-0.46235-1.6947-1.5413-2.7737-3.236-3.236 0.30787-0.3079 0.61664-0.6167 0.92457-0.9244-2.218-0.6759-4.2206-1.7549-6.0096-3.236-0.6167 0.6166-1.2324 1.2323-1.849 1.849-1.887-0.8534-3.8906-1.1611-6.0096-0.9244 0.2995-2.9532-0.7785-3.8777-3.236-2.7737-0.09057-1.9592-0.86078-3.5005-2.3114-4.6228-0.69434 0.8099-1.1566 1.7345-1.3868 2.7737-1.0669-1.1493-2.3003-2.0739-3.6982-2.7737v-3.6983c-0.30786 0.30784-0.6167 0.6167-0.92456 0.92454-0.76459-1.0743-1.5347-2.1533-2.3114-3.2359 0.56952-2.4408 0.26164-4.9057-0.92456-7.3965 1.2324-1.2324 1.2324-2.4657 0-3.6981 0.4854-0.6398 1.1021-1.1021 1.8491-1.3869 0.50298-5.7331 3.5854-7.8911 9.2455-6.4719z"/> </g> <g fill="#fccfaa"> <path d="m309.6 1007.7c-1.1538 0.77115-1.7705 2.0036-1.8491 3.6983 0.4234 4.8733 1.348 9.6505 2.7737 14.331-0.15448 1.3868-0.30786 2.7737-0.46234 4.1605-0.35406 0.5139-0.81634 0.8219-1.3868 0.9246-0.07116 1.1556-0.68792 1.9258-1.8491 2.3114 1.5302 1.3349 2.1468 3.0306 1.8491 5.0849-3.309 0.246-3.6179 1.4783-0.92456 3.6983-1.727 1.3064-3.5761 2.3854-5.5473 3.2359 2.4464 0.4596 4.9122 0.6139 7.3964 0.4623v-2.7737c1.52-0.1978 2.9069 0.1109 4.1605 0.9246 0.28473-0.7471 0.74701-1.3638 1.3868-1.8491 2.389 3.8258 2.389 7.524 0 11.095-0.82105-2.3612-1.1289-4.827-0.92457-7.3964-1.1935-0.2191-2.1181 0.0888-2.7737 0.9246h-7.3964c-4.4313-0.674-8.4374-2.3696-12.019-5.0851-5.2311-4.448-9.5451-9.5331-12.944-15.255-1.6041-4.5083-2.8374-9.1311-3.6982-13.868-1.9508-9.891 1.1307-17.595 9.2455-23.114 14.515-2.4565 22.836 3.7066 24.963 18.491z"/> </g> <g fill="#fb8756"> <path d="m308.67 1030.9c-10.316 2.78-16.48-1.0725-18.491-11.557 1.8741-8.3459 7.1135-11.582 15.717-9.7078 1.1085 7.0387 2.0331 14.127 2.7737 21.265z"/> </g> <g fill="#fcd5ba"> <path d="m299.43 1015.1c1.3664-0.2422 2.5989 0.06567 3.6982 0.92455 2.0526 3.7862 3.285 7.7922 3.6982 12.019-5.0564 0.7305-9.2169-0.8108-12.482-4.6229-0.18122-3.9571 1.5135-6.7307 5.0851-8.321z"/> </g> <g fill="#fb8756"> <path d="m289.26 994.8c6.0854-0.7129 10.4 1.5985 12.944 6.9341-0.30786 0.46227-0.6167 0.92455-0.92462 1.3868-7.1718-4.3685-13.49-3.4439-18.953 2.7737-0.2663-5.3264 2.0451-9.0245 6.9342-11.095z"/> </g> <g fill="#0d1b26"> <path d="m612.85 1009.6c7.3789 2.9114 12.464 8.1508 15.255 15.717 2.7737 12.636 5.5473 25.271 8.3209 37.907 2.3346 11.642-1.2102 20.887-10.632 27.736-0.91726-0.1589-1.5329 0.1499-1.8491 0.9246-10.354 2.7424-20.832 4.8994-31.435 6.4721-11.318-0.0354-19.176-5.2746-23.576-15.718-2.7737-12.636-5.5474-25.271-8.3211-37.907-2.8624-14.154 2.2227-24.171 15.255-30.048 8.0132-1.8492 16.025-3.6982 24.038-5.5473 4.3306-0.4263 8.6455-0.27286 12.944 0.46225z"/> </g> <g fill="#384d60"> <path d="m600.83 1012.4c13.848 0.13857 22.322 6.9183 25.425 20.34 2.1477 8.5762 3.6889 17.205 4.6228 25.888-9.1069-20.502-24.67-28.669-46.69-24.501-6.9397 1.9296-13.412 4.8577-19.416 8.7833-2.268-9.3721 0.50575-16.923 8.321-22.652 9.1975-3.1148 18.443-5.735 27.737-7.8587z"/> </g> <path d="m279.09 1026.2c3.3987 5.722 7.7127 10.807 12.944 15.255 3.5817 2.7155 7.5878 4.4111 12.019 5.0851 1.9702 0.7526 4.1272 1.2148 6.4719 1.3868-7.1542 1.1039-13.626-0.4373-19.416-4.6228-2.9095-3.6806-5.9911-7.2245-9.2455-10.632-1.1862-2.0619-2.1108-4.2187-2.7737-6.4719z"/> <g fill="#f66245"> <path d="m451.98 1054c8.2359 0.2136 8.3894 1.7548 0.46227 4.6228-4.1116-1.0494-4.2659-2.5906-0.46227-4.6228z"/> </g> <g fill="#fb8756"> <path d="m315.15 1053c0.58153 4.5582 1.9684 8.8729 4.1605 12.944 10.756 20.62 26.011 37.107 45.765 49.464 0.69525 0.6206 1.0041 1.3907 0.92456 2.3116-4.0218 6.1936-7.5665 12.665-10.632 19.416-1.6845 5.0454-3.3793 9.9758-5.0851 14.793-0.92084 0.0793-1.691-0.2293-2.3113-0.9246-11.773-20.786-21.327-42.666-28.661-65.643-7.8097 24.898-22.449 44.622-43.916 59.172-1.9092 0.0158-3.7584 0.3237-5.5473 0.9245 6.5042-6.3498 12.514-13.13 18.029-20.34 15.904-21.365 23.763-45.403 23.576-72.115v-6.4718c0.65558-0.8358 1.5801-1.1437 2.7737-0.9246-0.20434 2.5694 0.10352 5.0352 0.92457 7.3964z"/> </g> <g fill="#ef5351"> <path d="m456.6 1069.7c1.827 0.8572 2.1349 2.0895 0.92457 3.6983-1.8704 1.5467-4.0274 2.1635-6.4718 1.8491-9.6127 0.5021-19.167 1.4265-28.661 2.7737-1.1169-0.6786-2.3492-0.9864-3.6982-0.9246 12.334-3.4633 24.969-5.9282 37.907-7.3965z"/> </g> <g fill="#f8e5d2"> <path d="m451.06 1075.2c-2.1256 2.2431-3.666 4.8633-4.6229 7.8588-4.0864 0.7101-8.0925 0.5566-12.019-0.4623-4.46-0.6593-8.4662-2.2004-12.019-4.6228 9.4942-1.3472 19.049-2.2716 28.661-2.7737z"/> </g> <g fill="#b28190"> <path d="m631.34 1090c-2.1079 1.5931-4.5737 2.209-7.3964 1.8492 0.31626-0.7747 0.93186-1.0835 1.8491-0.9246 1.8491-0.3076 3.6982-0.6164 5.5472-0.9246z"/> </g> <g fill="#7d0e0b"> <path d="m418.7 1077.1c1.349-0.0618 2.5814 0.246 3.6982 0.9246 3.553 2.4224 7.5592 3.9635 12.019 4.6228 0.14514 1.2694-0.00934 2.5028-0.46234 3.698-2.1782 4.158-4.4896 8.1641-6.9341 12.02-5.1951-2.4214-9.2012-6.1196-12.019-11.095-0.78033-3.3275-1.0882-6.7179-0.92462-10.17h4.6228z"/> </g> <g fill="#bc6672"> <path d="m647.06 1094.6c1.6457 1.3776 2.2614 3.2268 1.849 5.5473-1.6715-1.311-2.2882-3.1601-1.849-5.5473z"/> </g> <g fill="#f54d6f"> <path d="m415 1087.3c2.818 4.9751 6.8241 8.6733 12.019 11.095 2.4695 2.46 5.2432 4.617 8.321 6.4717 2.5259 5.8728 0.6767 8.3377-5.5473 7.3965-7.9863-6.4053-12.917-14.726-14.793-24.963z"/> </g> <g fill="#fdd0a3"> <path d="m350.28 1152c-1.5458 7.6486-0.9292 15.045 1.8492 22.189 0.30786 1.2322 0.61664 2.4656 0.9245 3.698-17.144-16.587-37.484-27.374-61.02-32.359-5.5206-0.685-11.068-0.9939-16.642-0.9245 21.467-14.55 36.107-34.273 43.916-59.172 7.3345 22.977 16.888 44.858 28.661 65.643 0.62036 0.6953 1.3905 1.0039 2.3113 0.9246z"/> </g> <g fill="#8f065c"> <path d="m276.92 1144.6c-0.51065 0-1.0215 0.0031-1.5326 0.0095-1.9092 0.0158-3.7584 0.3237-5.5473 0.9245-3.1925 2.0701-6.2741 4.3814-9.2455 6.9341 0.18115 0.317 0.43475 0.4751 0.75958 0.4751 0.05194 0 0.10575-4e-3 0.16135-0.0122h0.00293c-3.9837 3.0529-7.9905 6.1349-12.019 9.2449-12.855 14.928-22.563 31.878-29.123 50.851-6.2768 20.788-11.362 41.745-15.255 62.87v5.5474c-0.23669 2.1191 0.07114 4.1226 0.92454 6.0095-2.9123 12.183-5.686 24.356-8.321 36.52-9.9787 47.179-19.224 94.639-27.737 142.38-0.16095 2.1831-0.46909 4.3398-0.92453 6.4719 9.7059 2.6533 19.568 5.1192 29.586 7.3965 2.4344-16.403 5.3615-32.736 8.7833-49.002 7.8496-32.321 15.552-64.673 23.109-97.058h0.00263c-4.1032 38.48-10.112 76.688-18.027 114.62 0.61667 0.3076 1.2324 0.6164 1.8491 0.9245 7.9891-1.7422 16.002-3.2832 24.038-4.6228 1.0678 2.7237 1.2213 5.4974 0.46228 8.3208-1.7419 11.067-3.2831 22.162-4.6228 33.284-0.25702 0.8467-0.7193 1.4624-1.3868 1.8489v0.9246h76.738c-0.60278-8.8506 0.47522-17.48 3.236-25.888 5.5572-12.487 13.415-23.272 23.574-32.358h-0.00366c-6.4922 1.9588-12.962 4.1153-19.41 6.4703-8.1509 4.0161-16.78 6.944-25.888 8.7832-1.6529 0.3182-3.2826 0.4774-4.8891 0.4774-2.7527 0-5.4374-0.4673-8.0546-1.402 2.1542-2.0036 4.6199-3.5447 7.3964-4.6228 9.1179-3.811 18.363-7.355 27.737-10.632 8.5919-2.6756 17.221-5.2949 25.888-7.8589-17.702-7.0015-34.961-15.014-51.775-24.038 14.149-1.0319 28.348-1.5478 42.595-1.5478 4.5958 0 9.1967 0.0536 13.803 0.161-0.35321-49.38-2.3568-98.689-6.0096-147.93-1.2684-14.83-4.658-29.005-10.168-42.525h0.0036c5.9711 5.0424 10.9 10.896 14.787 17.562 7.5665 17.512 11.111 35.849 10.632 55.011-0.82837 14.963-1.5995 29.91-2.3113 44.841 0.61664 0.6167 1.2324 1.2325 1.8491 1.8492 8.1407 24.576 15.999 49.231 23.576 73.964 32.518-25.425 62.721-53.471 90.606-84.134-29.479-40.712-60.76-79.851-93.842-117.42-6.813-6.6586-13.439-13.438-19.878-20.34-17.144-16.587-37.484-27.374-61.02-32.359-5.0144-0.6222-10.051-0.934-15.109-0.934z"/> </g> <g fill="#bc7482"> <path d="m659.08 1151c0.5908 0.552 0.8987 1.322 0.92456 2.3113 0.10449 1.5708-0.51126 2.6496-1.8491 3.2361 0.30787-1.8492 0.6167-3.6983 0.92457-5.5474z"/> </g> <g fill="#e83438"> <path d="m631.34 1090c4.326-0.1533 8.64 1e-3 12.944 0.4624 1.5171 1.0437 2.4416 2.4307 2.7736 4.1605-0.4392 2.3872 0.1775 4.2363 1.849 5.5473 3.5309 16.901 6.9214 33.851 10.17 50.851-0.30787 1.8491-0.6167 3.6982-0.92457 5.5474-0.73033 1.1963-1.6549 2.2751-2.7737 3.2358-4.2796 1.3777-8.5946 2.4565-12.944 3.2361-6.7918 0.6147-13.264 2.156-19.416 4.6225-6.8296 0.9368-13.61 2.1702-20.34 3.6983-5.135 1.5615-10.374 2.0239-15.718 1.387-1.7188-1.4405-3.1055-3.1353-4.1604-5.0853-3.1527-16.241-6.6975-32.266-10.632-48.077-0.8292-4.2901-0.98375-8.604-0.46214-12.944 1.6946-1.3869 3.3902-2.7736 5.0849-4.1604 5.416-1.1992 10.655-2.5859 15.717-4.1604 10.603-1.5727 21.081-3.7297 31.435-6.4721 2.8227 0.3598 5.2885-0.2561 7.3964-1.8492z"/> </g> <g fill="#fdfdfb"> <path d="m610.08 1100.2c20.208 0.0232 31.61 10.039 34.208 30.048-2.0488 18.228-12.219 28.244-30.51 30.048-17.995-2.2771-27.857-12.447-29.586-30.51 1.8122-15.98 10.441-25.841 25.888-29.586z"/> </g> <g fill="#434754"> <path d="m642.44 1163.1c0.3079 2.4656 0.6167 4.9304 0.9246 7.3962-8.3432-0.1313-16.664 0.1778-24.963 0.9246 1.312-0.8792 2.8523-1.187 4.6228-0.9246v-2.7737c6.152-2.4665 12.624-4.0078 19.416-4.6225z"/> </g> <g fill="#251b21"> <path d="m623.02 1167.7v2.7737c-1.7705-0.2624-3.3108 0.0454-4.6228 0.9246-5.2515 0.5159-10.491 1.1328-15.717 1.8491v-1.8491c6.7297-1.5281 13.51-2.7615 20.34-3.6983z"/> </g> <g fill="#f9d4ae"> <path d="m643.36 1170.5c3.0815 0.6167 6.1639 1.2327 9.2456 1.8491v6.472c-2.2459 0.355-4.4037 0.9719-6.4719 1.8491-6.8029-0.0757-13.583 0.2331-20.34 0.9246-5.8386 0.7517-11.694 1.3674-17.567 1.8491 0.51587-1.1927 1.4404-1.9627 2.7737-2.3115-1.5024-0.7886-1.8103-1.7129-0.92455-2.7735 3.2618-0.0823 6.3442-0.699 9.2456-1.8491-5.2174-0.7581-10.302-0.2959-15.255 1.3867-3.7444-1.3459-7.597-1.9626-11.557-1.8491 3.1998-1.2627 6.5894-2.1875 10.17-2.7737 5.2263-0.7163 10.466-1.3332 15.717-1.8491 8.2988-0.7468 16.62-1.0559 24.963-0.9246z"/> </g> <g fill="#fdd1a4"> <path d="m592.51 1176c3.9599-0.1135 7.8125 0.5032 11.557 1.8491 4.9529-1.6826 10.038-2.1448 15.255-1.3867-2.9014 1.1501-5.9839 1.7668-9.2456 1.8491-0.88575 1.0606-0.57785 1.9849 0.92455 2.7735-1.3332 0.3488-2.2578 1.1188-2.7737 2.3115l-1.8491 1.8491c6.5912 1.3081 13.371 2.2326 20.34 2.7737-1.7778 0.747-3.6269 1.2092-5.5473 1.3867 1.0171 0.946 2.2495 1.4082 3.6982 1.387 4.7615-1.9361 9.6921-2.2447 14.793-0.9246-1.8492 0.6167-3.6982 1.2324-5.5474 1.8491 2.157 0.6167 4.3149 1.2324 6.4719 1.8491-0.48547 0.6399-1.1022 1.1021-1.8491 1.3868 1.5412 0.9248 3.0815 1.8493 4.6228 2.7739-2.1524 0.7673-4.3103 1.5373-6.4719 2.3113-0.92446-0.1543-1.8491-0.3079-2.7737-0.4624 0.92454-0.77 1.8492-1.541 2.7737-2.3113-1.8344-1.115-3.6835-1.115-5.5474 0-1.4708-2.2967-3.6288-3.2212-6.4718-2.7737-2.045-0.0813-3.8942 0.3811-5.5472 1.387 3.4309 0.1618 6.8211 0.624 10.17 1.3867-4.6422 0.6877-9.265 1.458-13.868 2.3113 4.6173 2.1523 9.548 2.9226 14.793 2.3115 0.10264 0.5703 0.4104 1.0327 0.92444 1.3869 9.5692 1.1094 9.2604 2.034-0.92444 2.7735-1.35 0.75-1.6579 1.521-0.92456 2.3113 5.1904-1.0364 10.429-1.1907 15.717-0.462-0.92455 0.3077-1.8491 0.6165-2.7737 0.9244 2.219 0.1721 4.3769 0.6345 6.4718 1.3869-3.2127 0.5362-6.2953 1.3064-9.2454 2.3113-6.9442 0.1582-13.725 0.6204-20.34 1.3867-5.2774-0.0073-5.5853 0.4551-0.92466 1.387 10.258 0.0962 20.428 1.0207 30.51 2.7737 1.6653 0.2932 1.973 0.9096 0.9247 1.8491 2.4454 1.9267 3.0612 4.2383 1.849 6.9343-2.7264 4.3611-6.1167 5.1311-10.17 2.3113-1.8242-0.4578-3.6732-0.6123-5.5473-0.4624-6.1614-1.0779-12.325-1.0779-18.491 0 6.1336 0.9219 12.297 1.2297 18.491 0.9245 7.4214-0.0407 9.4247 3.3489 6.0096 10.17-1.0586 1.0948-2.1376 1.0948-3.236 0-1.5707-0.1479-3.112 0.0056-4.6228 0.4624 1.1058 0.6045 1.1058 1.0667 0 1.3867-6.4357-1.3286-12.6-0.7128-18.491 1.8492-29.177 44.466-57.684 89.461-85.521 134.99-6.3952 8.7851-12.558 17.723-18.491 26.812-5.9375 8.0981-12.564 15.649-19.878 22.651-6.4015 4.7578-13.49 7.9936-21.265 9.708 6.8334-8.5357 13.152-17.473 18.953-26.812 23.634-40.794 47.98-81.167 73.04-121.12 5.5472-7.3962 11.095-14.793 16.642-22.189 4.5368-3.5789 9.314-6.8147 14.331-9.7078 3.5753-3.885 7.4269-7.4289 11.557-10.632 0.63613-0.7693 0.48169-1.385-0.46227-1.8491-11.033 9.449-23.205 17.153-36.52 23.114-29.894 41.913-59.788 83.827-89.682 125.74-9.8622 12.479-19.879 24.807-30.048 36.982-2.9947 3.2202-5.7684 6.6106-8.321 10.17-0.6167 0-0.9245 0.3081-0.9245 0.9248-3.6982 3.0815-7.0886 6.4719-10.17 10.17-12.611 12.302-25.247 24.629-37.907 36.982h-81.361c-0.60278-8.8506 0.47522-17.48 3.236-25.888 5.5575-12.488 13.416-23.274 23.576-32.359 13.275-10.507 26.526-20.985 39.756-31.435 32.518-25.425 62.721-53.471 90.606-84.134 2.8818-2.3215 5.8099-4.7874 8.7833-7.3965 16.058-16.981 31.776-34.24 47.152-51.775 19.65-25.2 39.99-49.854 61.021-73.964 2.7154-2.5759 5.6434-4.7327 8.7832-6.4719z"/> </g> <g fill="#f7f3e5"> <path d="m652.61 1172.3c3.711-0.1533 7.4093 1e-3 11.095 0.4625 1.2324 1.5412 1.2324 3.0815 0 4.6228-3.6012 1.1704-7.2993 1.6325-11.095 1.3867v-6.472z"/> </g> <g fill="#141a23"> <path d="m625.8 1181.6c0.49744 1.4951 0.8053 3.0363 0.92454 4.6228-6.7992 0.0195-13.579-0.2894-20.34-0.9246l1.8491-1.8491c5.8728-0.4817 11.728-1.0974 17.567-1.8491z"/> </g> <g fill="#384959"> <path d="m646.14 1180.6c0.10718 3.1067 0.41503 6.188 0.92453 9.2456-6.7918-1.321-13.572-2.5544-20.34-3.6982-0.11924-1.5865-0.4271-3.1277-0.92454-4.6228 6.7575-0.6915 13.537-1.0003 20.34-0.9246z"/> </g> <g fill="#f3cca7"> <path d="m606.38 1185.3c6.7612 0.6352 13.541 0.9441 20.34 0.9246 6.7687 1.1438 13.548 2.3772 20.34 3.6982 2.855 0.8572 5.6287 2.0896 8.321 3.6982 0.30785 1.0791 0.6167 2.157 0.92455 3.2361-0.1942 2.8262-1.4266 5.1377-3.6981 6.9341 4.0393 3.8887 4.656 8.2036 1.849 12.944-1.1047 0.1643-2.1837 0.4721-3.236 0.9245-10.472-2.5415-21.105-3.7751-31.897-3.6985 6.6151-0.7663 13.396-1.2285 20.34-1.3867 2.9502-1.0049 6.0327-1.7751 9.2454-2.3113-2.0949-0.7524-4.2528-1.2148-6.4718-1.3869 0.9246-0.3079 1.8492-0.6167 2.7737-0.9244-5.2884-0.7287-10.527-0.5744-15.717 0.462-0.7333-0.7903-0.4254-1.5613 0.92456-2.3113 10.185-0.7395 10.494-1.6641 0.92444-2.7735-0.51404-0.3542-0.8218-0.8166-0.92444-1.3869-5.245 0.6111-10.176-0.1592-14.793-2.3115 4.6034-0.8533 9.2262-1.6236 13.868-2.3113-3.3489-0.7627-6.7391-1.2249-10.17-1.3867 1.6531-1.0059 3.5022-1.4683 5.5472-1.387 2.843-0.4475 5.001 0.477 6.4718 2.7737 1.8639-1.115 3.713-1.115 5.5474 0-0.92446 0.7703-1.8491 1.5413-2.7737 2.3113 0.92454 0.1545 1.8492 0.3081 2.7737 0.4624 2.1616-0.774 4.3196-1.544 6.4719-2.3113-1.5413-0.9246-3.0816-1.8491-4.6228-2.7739 0.74693-0.2847 1.3636-0.7469 1.8491-1.3868-2.157-0.6167-4.3149-1.2324-6.4719-1.8491 1.8492-0.6167 3.6982-1.2324 5.5474-1.8491-5.1007-1.3201-10.031-1.0115-14.793 0.9246-1.4487 0.0212-2.6812-0.441-3.6982-1.387 1.9204-0.1775 3.7695-0.6397 5.5473-1.3867-6.9693-0.5411-13.749-1.4656-20.34-2.7737z"/> </g> <g fill="#765f51"> <path d="m630.42 1201.9c5.1192-1.0708 10.359-0.9173 15.717 0.4624-5.2219-0.0279-10.461-0.1824-15.717-0.4624z"/> </g> <g fill="#22140d"> <path d="m635.97 1228.7v0.9245c-6.1946 0.3052-12.358-0.0026-18.491-0.9245 6.1659-1.0779 12.33-1.0779 18.491 0z"/> </g> <g fill="#394d5f"> <path d="m651.68 1226.9c2.1301 8.8267 3.5171 17.764 4.1605 26.812-4.1763 2.375-8.6445 3.4541-13.406 3.2359-1.5245-5.6167-2.7569-11.317-3.6982-17.104 1.0984 1.0948 2.1774 1.0948 3.236 0 3.4152-6.8213 1.4118-10.211-6.0096-10.17v-0.9245c1.874-0.1499 3.723 0.0046 5.5473 0.4624 4.0533 2.8198 7.4436 2.0498 10.17-2.3113z"/> </g> <g fill="#0f1d27"> <path d="m619.32 1213.9c10.792-0.0766 21.425 1.157 31.897 3.6985 1.0523-0.4524 2.1313-0.7602 3.236-0.9245-0.59254 0.9077-1.2083 1.8322-1.849 2.7734 2.1966 10.251 4.0456 20.575 5.5472 30.973 0.38733 2.7562-0.53713 4.9131-2.7737 6.472-9.0624 2.8613-18.308 4.4028-27.737 4.6228-1.6947-0.4624-2.7737-1.5413-3.236-3.2361-1.3757-4.875-2.4537-9.8064-3.2359-14.793-2.0368 0.4023-3.8859 0.4023-5.5474 0 5.8914-2.562 12.055-3.1778 18.491-1.8492 1.1058-0.32 1.1058-0.7822 0-1.3867 1.5108-0.4568 3.0521-0.6103 4.6228-0.4624 0.94127 5.7869 2.1737 11.488 3.6982 17.104 4.7615 0.2182 9.2298-0.8609 13.406-3.2359-0.64343-9.0478-2.0304-17.985-4.1605-26.812 1.2122-2.696 0.59645-5.0076-1.849-6.9343 1.0484-0.9395 0.7406-1.5559-0.9247-1.8491-10.082-1.753-20.252-2.6775-30.51-2.7737-4.6607-0.9319-4.3527-1.3943 0.92466-1.387z"/> </g> <g fill="#470a30"> <path d="m244.88 1236.1c0.59082 0.552 0.89869 1.322 0.9245 2.3113-1.5107 16.749-2.2809 33.546-2.3113 50.388-5.9976-17.812-5.5353-35.378 1.3868-52.7z"/> </g> <g fill="#fb8453"> <path d="m470.47 1437.7c-1.678 1.0446-3.5271 1.6604-5.5472 1.8491-5.1618-3.4719-10.709-6.2454-16.642-8.3211 10.169-12.176 20.186-24.503 30.048-36.982 29.894-41.913 59.788-83.827 89.682-125.74 13.315-5.9607 25.487-13.665 36.52-23.114 0.94396 0.4641 1.0984 1.0798 0.46227 1.8491-4.13 3.2034-7.9816 6.7473-11.557 10.632-5.0166 2.8931-9.7938 6.1289-14.331 9.7078-5.5474 7.3965-11.095 14.793-16.642 22.189-25.06 39.95-49.406 80.323-73.04 121.12-5.8015 9.3388-12.12 18.276-18.953 26.812z"/> </g> <g fill="#470a30"> <path d="m255.97 1307.3c0.6065 1.0376 0.91438 2.2697 0.92456 3.6982-3.0418 24.373-6.2778 48.72-9.7078 73.04-0.09796-25.917 2.8291-51.496 8.7833-76.738z"/> <path d="m376.17 1399.8c-13.229 10.45-26.481 20.928-39.756 31.435-6.494 1.9593-12.966 4.1162-19.416 6.472-3.137-1.4109-4.3695-3.8768-3.6983-7.3965 8.5919-2.6756 17.221-5.2949 25.888-7.8589-17.702-7.0015-34.961-15.014-51.775-24.038 18.714-1.3648 37.514-1.8269 56.398-1.3868-0.35321-49.38-2.3568-98.689-6.0096-147.93-1.2685-14.832-4.6588-29.008-10.17-42.53 5.9736 5.0434 10.904 10.899 14.793 17.566 7.5665 17.512 11.111 35.849 10.632 55.011-0.82837 14.963-1.5995 29.91-2.3113 44.841 0.61664 0.6167 1.2324 1.2325 1.8491 1.8492 8.1407 24.576 15.999 49.231 23.576 73.964z"/> </g> <g fill="#fb8453"> <path d="m448.28 1431.2c5.9329 2.0757 11.48 4.8492 16.642 8.3211-8.2378 1.5364-16.559 2.1533-24.963 1.8489 2.5527-3.5594 5.3264-6.9498 8.321-10.17z"/> </g> <g fill="#470a30"> <path d="m313.3 1430.3c-0.6712 3.5197 0.56122 5.9856 3.6983 7.3965-8.1509 4.0161-16.78 6.944-25.888 8.7832-4.485 0.8635-8.799 0.5556-12.944-0.9246 2.1542-2.0036 4.6199-3.5447 7.3964-4.6228 9.1179-3.811 18.363-7.355 27.737-10.632z"/> <path d="m232.86 1488.5c-9.5978-1.8574-19.151-4.0154-28.661-6.4717-1.4811-1.4553-3.3302-2.072-5.5473-1.8491 2.4344-16.403 5.3615-32.736 8.7833-49.002 7.8513-32.328 15.556-64.687 23.114-97.078-4.1032 38.486-10.113 76.702-18.029 114.64 0.61667 0.3076 1.2324 0.6164 1.8491 0.9245 7.9891-1.7422 16.002-3.2832 24.038-4.6228 1.0678 2.7237 1.2213 5.4974 0.46228 8.3208-1.7419 11.067-3.2831 22.162-4.6228 33.284-0.25702 0.8467-0.7193 1.4624-1.3868 1.8489z"/> <path d="m428.87 1452.5v36.982h-37.907c12.66-12.353 25.296-24.68 37.907-36.982z"/> </g> <g fill="#bfc9d2"> <path d="m198.65 1480.2c2.2171-0.2229 4.0662 0.3938 5.5473 1.8491-2.217 0.2227-4.0662-0.394-5.5473-1.8491z"/> </g> <g fill="#a5a9ad"> <path d="m465.85 1450.7c100-0.9236 200.16-1.2325 300.48-0.9246v29.586h-1.8491v-28.661h-298.63z"/> </g> <g fill="#aa4723"> <path d="m897.33 1475.6h-411.75v-38.482h411.75v38.482z"/> </g> <path d="m833.98 1128.2 36.196 7.4264q-30.912 150.68-61.824 301.37-18.098-3.7123-36.196-7.4244 30.912-150.68 61.824-301.37"/> <path d="m512.79 1409.9 298.65 8e-4q0 14.793 0 29.586-149.32 4e-4 -298.65 9e-4 0-14.794 0-29.587"/> <g fill="#637079"> <path d="m535.1 1409.9 203.62 9e-4q0 1.7319 0 3.4635-101.81 7e-4 -203.62 0.0011 0-1.7327 0-3.4655"/> </g> <g fill="#74351e"> <path d="m468.23 1489.4 436.15 1e-3q0-10.449 0-20.898-218.08 5e-4 -436.15 1e-3 0 10.448 0 20.896"/> </g> </svg>