<?xml version='1.0' encoding='utf-8'?>
<svg xmlns="http://www.w3.org/2000/svg" width="1279px" height="960px" version="1.1" viewBox="-113 593 1279 960"> <g stroke-linejoin="miter"> <g fill="#36ba8b"> <path d="m-113 592.41c-0.15704 0-0.30766 0.06238-0.4187 0.1734-0.11105 0.11104-0.17343 0.26164-0.17343 0.4187l1e-3 960c0 0.3269 0.2651 0.592 0.59213 0.592l1279 1e-3c0.157 0 0.3076-0.0622 0.4187-0.1733s0.1734-0.2617 0.1734-0.4187l-9e-4 -960c0-0.32704-0.2652-0.5921-0.5922-0.5921l-1279-9.8e-4z"/> </g> <g fill="#fff"> <path d="m109.45 842.14 314.02-110.95q76.273 215.87 152.55 431.73-157.01 55.478-314.02 110.96-76.273-215.87-152.55-431.73"/> </g> <g fill="#bfc9d2" fill-opacity=".78431"> <path d="m361.67 765.01 55.524-19.618 3.7301 10.557-55.523 19.619-3.7304-10.558"/> <path d="m384.41 772.92 37.792-13.353 3.7302 10.557-37.792 13.354-3.7304-10.558"/> </g> <g fill="#bfc9d2" fill-opacity=".61176"> <path d="m415.63 988.58 77.407-27.349 53.132 150.37-77.406 27.352-53.133-150.37"/> </g> <g fill="#d4ebff" fill-opacity=".99608"> <path d="m430.14 988.34 51.462-18.182q2.7503 7.7837 5.5006 15.567-25.731 9.0918-51.462 18.184-2.7504-7.784-5.5009-15.569"/> </g> <g fill="#d4ebff" fill-opacity=".44706"> <path d="m177.59 962.46 248.74-87.886q13.934 39.436 27.868 78.873-124.37 43.943-248.74 87.887-13.934-39.437-27.869-78.874"/> </g> <g fill="#d4ebff" fill-opacity=".99608"> <path d="m241.15 879.06 142.79-50.453q6.0154 17.025 12.031 34.051-71.397 25.227-142.79 50.454-6.0158-17.026-12.032-34.051"/> </g> <g fill="#828c96"> <path d="m266.83 878.1 2.9511-1.0421q2.5632-0.90626 4.1628-0.36486 1.6398 0.56053 2.3138 2.4679 0.35815 1.0136 0.29883 1.8896-0.06464 0.86097-0.53958 1.6993-0.51877 0.90425-1.3128 1.5032-0.70679 0.52885-1.7553 0.94625-0.19605 0.07773-0.40408 0.152l-6.4e-4 2.6e-4 -2.802 0.98999-2.912-8.2416zm23.978-1.912q0.12564-0.04994 0.25702-0.09644l-0.01928 0.0404q0.95376-0.337 1.7947-0.28215 0.84097 0.05499 1.5626 0.43689 0.56042 0.30496 1.22 1.1279 0.57278 0.71973 0.8835 1.5989l-8.4054 2.9707q-0.43232-2.0775 0.29388-3.6751 0.6423-1.4166 2.413-2.1211zm73.161-25.85q0.1257-0.05005 0.25702-0.0965l-0.01917 0.04035q0.95365-0.33695 1.7945-0.28225 0.84085 0.05514 1.5625 0.43716 0.56042 0.30494 1.22 1.128 0.57297 0.71975 0.88367 1.599l-8.4055 2.9704q-0.43231-2.0773 0.29395-3.6751 0.6423-1.4165 2.413-2.121zm-103.1 27.204 0.47396 1.3412q0.15802 0.44721 0.64196 0.3935 0.28934-0.03515 1.8998-0.26885l6.1453 17.392-1.6419 0.99906q-0.41015 0.2624-0.25218 0.70955l0.46343 1.3117 2.1906-0.77436 2.966-1.0475 2.1908-0.7743-0.46346-1.3116q-0.06842-0.19379-0.27539-0.30512-0.18677-0.10156-0.41129-0.07273-0.25949 0.02476-1.8306 0.2278l-2.4328-6.8854 1.9525-0.68935q0.64075-0.2268 0.97218-0.14275 0.38667 0.09805 0.73564 0.32675l8.4376 5.803q0.58423 0.51454 1.389 0.2302l0.9689-0.342 1.6541-0.58484 0.55148-0.19483-0.47394-1.3412q-0.15796-0.4472-0.65677-0.38844l9.3e-4 -3.6e-4 0.02892-0.00965q-0.16498 0.00755-1.8193 0.30719l-7.0152-4.8136q-0.60775-0.4391-1.3048-0.5616 1.0185-0.62824 1.9546-1.6796 0.79396-0.88417 1.1944-1.9812 0.4002-1.097 0.4103-2.2069 0.00408-1.1749-0.3804-2.263-0.49492-1.4008-1.3573-2.3702-0.83145-0.92995-2.1398-1.4064-1.2882-0.46685-2.9357-0.33745-1.7272 0.14085-3.754 0.8569l-5.8868 2.0806-2.1909 0.77356zm29.099-3.2828q-1.4515 0.57753-2.4348 1.506-1.1552 1.0955-1.7212 2.4354-0.52718 1.2592-0.56713 2.9497-0.0318 1.5702 0.53163 3.1648 0.70562 1.9973 1.8047 3.3522 1.1349 1.4096 2.4364 2.0562 1.4276 0.71944 2.9286 0.79244 1.5011 0.0732 3.1554-0.5113 0.15255-0.05397 0.3103-0.11665 0.61315-0.24402 1.306-0.62225 0.60423-0.33075 1.5017-1.0168 0.44874-0.34302 1.2219-1.2866 0.62125-0.75613 0.85864-1.4601l-1.1182-0.745q-0.27368-0.205-0.61639-0.08393-0.00844 0.00299-0.01688 0.00643-0.21793 0.08677-0.50986 0.4479-0.30337 0.3755-0.73535 0.8132-0.63365 0.6262-1.0974 0.9746-0.4959 0.3655-1.305 0.6874-0.18885 0.07505-0.3949 0.1479-0.99835 0.3528-2.0839 0.3171-1.0004-0.03204-1.9196-0.5456-1.005-0.56677-1.6549-1.4099-0.77815-1.0159-1.2784-2.4318l9.3e-4 -3.6e-4 10.253-3.6228q0.02518-9e-3 0.04917-0.0185 0.34393-0.1367 0.42331-0.3999 0.06125-0.206-0.18097-0.8916-0.55295-1.5648-1.5091-2.7526-0.8332-1.0299-2.1249-1.6966-1.1251-0.57475-2.4753-0.60045-1.3677-0.03-2.6926 0.4316l0.00103-3.4e-4q0.0122-0.00426 0.0245-0.00861l-0.03347 0.01225-0.00183 1.4e-4q-0.17053 0.0611-0.33514 0.12653zm14.159-5.0014q-2.4556 0.9767-3.4333 2.7122-1.013 1.783-0.3601 3.6309 0.64254 1.8183 2.2982 2.4235 0.89525 0.3038 1.6712 0.3651 0.68577 0.0426 3.1941-0.02216 0.62867-0.07129 1.4502 0.02393 0.50607 0.05609 1.1725 0.42403 0.52 0.2857 0.82536 1.15 0.29486 0.83454-0.25702 1.8344-0.57964 0.99674-1.8888 1.5176-0.10376 0.0412-0.21246 0.07967-1.9374 0.6845-3.3605 0.50005-0.21855-0.47595-0.45705-0.96161-0.22391-0.49094-0.32727-0.68904-0.0834-0.18847-0.09918-0.2333-0.2159-0.3261-0.57346-0.1997l-1.1028 0.39035 1.4216 4.0234q2.7488-0.04923 5.2972-0.94956 0.15955-0.05644 0.31333-0.1178 2.2048-0.8772 3.2647-2.7558 1.0419-1.8432 0.25727-4.0641-0.60559-1.7138-2.2049-2.255-0.95586-0.3329-1.5609-0.33705l-1.6703-0.03025q-0.31997-0.0042-1.0793 0.0296-0.73905 0.04313-1.0188 0.05797-1.2739 0.04783-2.1324-0.43657-0.50425-0.2409-0.78335-1.031-0.26862-0.76004 0.3248-1.6905 0.59313-0.9273 1.706-1.3702 0.08255-0.03283 0.168-0.0631l0.02997-0.01014q0.87915-0.31096 2.4905-0.49486 0.23432 0.5208 0.47818 1.0211 0.22379 0.4911 0.3274 0.6891 0.0885 0.2034 0.09907 0.2333 0.2422 0.4006 0.6744 0.2479l1.1775-0.41565-1.027-2.9066-0.37388-1.058q-2.7311 0.03399-4.2929 0.57805l0.0011-4e-4q0.00143-5e-4 0.00287-0.00105l-0.00312 0.00158-1.5e-4 -4.3e-4q-0.2187 0.07734-0.4265 0.1602zm6.3763-1.9775 0.45291 1.2818q0.17377 0.49174 0.68219 0.41264 0.33496-9.4e-4 1.8403-0.24804l2.6962 7.6306q0.91626 2.5932 2.842 3.7736 1.9399 1.1251 4.4138 0.25107 0.13653-0.0484 0.26965-0.10117 2.7418-1.091 3.9884-4.1695l0.80271 1.5603q0.38421 0.5182 0.93555 0.32335l3.8157-1.3476-0.46358-1.3121q-0.1633-0.46194-0.65686-0.388-0.2999 0.00526-1.8702 0.25836l-4.6812-13.249-2.7126 0.9582-2.1906 0.77405 0.46332 1.3116q0.17385 0.4917 0.6525 0.42326 1.5702-0.25312 1.87-0.2583l3.2385 9.1655q-1.107 2.6895-3.235 3.5362-0.09143 0.03635-0.1848 0.06944l-0.0105-0.02974q-1.6246 0.574-2.7813-0.0902-1.1364-0.65466-1.7736-2.458l-3.4702-9.8214-4.9329 1.7436zm19.106-6.7508 0.45291 1.2816q0.17374 0.4918 0.62259 0.4338 0.26478-0.0098 1.8998-0.26904l3.8968 11.029-1.6577 0.95446q-0.38564 0.23694-0.21191 0.72854l0.45291 1.2818 7.109-2.5118-0.45292-1.2818q-0.17373-0.49175-0.66729-0.41785-0.08942 0.0315-0.97234 0.1423l-0.88725 0.14585-3.2807-9.2848q0.82284-2.4714 2.6101-3.1823 0.0676-0.02695 0.1367-0.05139 2.9211-1.0321 4.2163 2.634l3.4808 9.8513 4.9184-1.7373-0.46359-1.3121q-0.16324-0.46193-0.65689-0.388-0.4585 0.07807-0.89247 0.13087-0.41384 0.06243-0.6585 0.0817-0.23916 0.03444-0.3042 0.04055l-2.6962-7.6308q-0.62127-1.7584 0.0245-3.1098 0.55302-1.1571 1.8384-1.6686 0.08121-0.03244 0.16547-0.06217 1.4753-0.5213 2.6564 0.11762 1.1006 0.60005 1.7641 2.4778l3.4807 9.8512 4.9182-1.7377-0.47398-1.3414q-0.16323-0.4619-0.65667-0.388-0.26495 0.0096-1.9 0.26885l-2.6962-7.6306q-0.98994-2.8018-2.8736-3.8628-0.94451-0.5383-2.0545-0.54834-1.2302-0.01801-2.5118 0.43484-0.0837 0.0295-0.16664 0.06266-1.2152 0.48354-2.2465 1.6955-1.0773 1.269-1.1537 3.1402-0.96836-1.3176-2.2277-1.845-1.2995-0.5468-2.8794 0.01145-0.0936 0.03315-0.185 0.06958-2.272 0.90377-3.3285 3.8877l-0.01055-0.02994-0.76676-1.5058q-0.37372-0.4883-0.92524-0.29343l-1.5945 0.56378-2.191 0.7738zm33.52-12.121q-1.4515 0.5774-2.4346 1.5061-1.1553 1.0954-1.7212 2.4352-0.52745 1.2593-0.56728 2.9497-0.03186 1.5704 0.53165 3.165 0.70565 1.9971 1.8046 3.3522 1.1351 1.4095 2.4364 2.0561 1.4277 0.7194 2.9287 0.7925 1.501 0.073 3.1554-0.51154 0.15262-0.05383 0.31046-0.11651 0.61319-0.24415 1.3061-0.62225 0.60408-0.3309 1.5016-1.0166 0.44883-0.34315 1.222-1.2866 0.62114-0.7562 0.8586-1.4604l-1.1182-0.7447q-0.2736-0.205-0.6164-0.084-0.00832 0.00306-0.0168 0.0062-0.2181 0.0869-0.50986 0.44816-0.30328 0.37534-0.73541 0.81304-0.63383 0.6262-1.0974 0.9745-0.49596 0.3655-1.3052 0.6874-0.1887 0.07504-0.39452 0.1479-0.9986 0.3528-2.0841 0.3172-1.0004-0.03215-1.9194-0.5456-1.0051-0.5667-1.6551-1.4101-0.77805-1.0158-1.2783-2.4317l0.00168-6.7e-4 10.252-3.6224q0.02503-0.0088 0.04913-0.0182 0.34369-0.13687 0.42319-0.40005 0.06124-0.20615-0.18091-0.89175-0.55301-1.5646-1.509-2.7525-0.8334-1.0299-2.125-1.6966-1.1251-0.57477-2.4754-0.60057-1.3656-0.02987-2.6886 0.4304l0.00171-8e-4q0.00992-0.0035 0.01994-7e-3l-0.0249 0.0087-0.00105 4e-4q-0.17542 0.06254-0.34458 0.1299z"/> </g> <g fill="#d4ebff" fill-opacity=".51373"> <path d="m126.8 848.81 65.054-22.985q13.469 38.119 26.938 76.239-32.527 11.493-65.054 22.986-13.469-38.12-26.938-76.24"/> </g> <g fill="#8795a2"> <path d="m173.52 877.48c9.2513-3.2699 9.3079-13.709 7.4906-21.627-2.2386-9.7538-9.1642-15.243-19.258-11.677-10.092 3.5656-12.034 12.188-7.6476 21.183 3.5611 7.3006 10.163 15.391 19.415 12.12z"/> <path d="m206.34 890.7c-1.1446-2.9169-2.5386-5.7609-4.0811-8.4857-1.8684-3.3007-4.4873-8.1827-8.3722-9.3906-2.247-0.69861-4.7032-0.32024-7.0214-0.40131-1.1282-0.03923-2.1523-0.11236-3.1408-0.25803-1.7218 4.0762-4.8178 6.984-9.0869 8.493-4.2678 1.5078-8.503 1.1902-12.404-0.8997-0.67734 0.73456-1.4283 1.4347-2.2813 2.174-1.7528 1.5194-3.9015 2.7682-5.2104 4.7232-2.2637 3.3813-1.2344 8.8243-0.61451 12.566 0.51175 3.0891 1.2137 6.1776 2.1559 9.1661 0.72993 2.3149 1.9724 2.2363 4.1298 2.2509 2.7013 0.01744 5.4016-0.2153 8.0777-0.5693 5.1682-0.6838 10.401-1.6547 15.35-3.3638 4.9239-1.7794 9.6056-4.3116 14.056-7.0263 2.3044-1.4054 4.5516-2.9212 6.642-4.6317 1.6703-1.3668 2.686-2.0865 1.7997-4.346z"/> </g> <g fill="#bfc9d2" fill-opacity=".99608"> <path d="m274.64 1221.4 252.92-89.363q4.834 13.681 9.668 27.362-126.46 44.682-252.91 89.364-4.8342-13.682-9.6685-27.364"/> </g> <g fill="#bbdfff"> <path d="m280.14 1194.2 108.47-38.324 4.7601 13.472-108.47 38.326-4.7606-13.474z"/> <path d="m272.95 1173.8 168.04-59.371q2.38 6.736 4.7603 13.473-84.017 29.686-168.04 59.373-2.3804-6.7368-4.7607-13.474z"/> <path d="m265.77 1153.5 129.96-45.92q2.38 6.7358 4.7605 13.473-64.981 22.961-129.96 45.921-2.3803-6.7371-4.7607-13.474z"/> <path d="m258.58 1133.2 82.41-29.119 82.41-29.118q2.38 6.7359 4.7604 13.473-82.41 29.119-164.82 58.237-2.3804-6.7368-4.7605-13.473z"/> <path d="m250.62 1115.1 108.47-38.324 4.7601 13.472-108.47 38.326-4.7606-13.473z"/> <path d="m243.44 1094.8 168.04-59.372q2.3801 6.7363 4.7606 13.473-84.018 29.686-168.04 59.373-2.3804-6.7371-4.7606-13.473z"/> <path d="m229.06 1054.1 82.41-29.119 82.41-29.118q2.3804 6.7367 4.7605 13.473-82.41 29.118-164.82 58.237-2.3803-6.7369-4.7606-13.473z"/> <path d="m236.25 1074.4 129.96-45.92q2.3803 6.7365 4.7605 13.473-64.981 22.96-129.96 45.921-2.3804-6.7371-4.7608-13.474z"/> </g> <g fill="#848c93"> <path d="m209.77 1062.9 10.634-3.7564q1.7209 4.8704 3.4418 9.741-5.3168 1.8787-10.634 3.7573-1.721-4.8708-3.4422-9.7419z"/> <path d="m216.88 1083 10.634-3.7569 3.442 9.7412-10.634 3.7579-3.4422-9.7422z"/> <path d="m223.99 1103.1 5.3173-1.8782 5.3166-1.8794q1.7211 4.8709 3.4418 9.7413-5.3169 1.8786-10.634 3.7575-1.7209-4.8703-3.442-9.7412z"/> <path d="m231.1 1123.2 10.634-3.7569 3.4416 9.7408-10.634 3.7575-3.4421-9.7414z"/> <path d="m237.88 1142.4 5.317-1.8787 5.317-1.8781q1.7209 4.8703 3.4419 9.7412-5.3168 1.8786-10.634 3.7573-1.721-4.8708-3.4421-9.7417z"/> <path d="m259.21 1202.8 10.634-3.7566 3.4416 9.7405-10.634 3.7576-3.4419-9.7415z"/> <path d="m252.1 1182.7 5.3176-1.8774 5.3164-1.8799q1.7211 4.8711 3.442 9.7412-5.3169 1.8786-10.634 3.7578-1.7211-4.8706-3.4422-9.7417z"/> <path d="m244.99 1162.5 10.634-3.7571 3.4418 9.7409-10.634 3.7576-3.4419-9.7414z"/> </g> <g fill="#fff"> <path d="m183.03 873.69 314.02-110.95q76.273 215.87 152.55 431.73-157.01 55.478-314.02 110.96-76.273-215.87-152.55-431.73"/> </g> <g fill="#bfc9d2" fill-opacity=".78431"> <path d="m435.26 796.56 55.524-19.618 3.73 10.557-55.523 19.619-3.7304-10.558"/> <path d="m457.99 804.47 37.792-13.353 3.7302 10.557-37.792 13.354-3.7304-10.558"/> </g> <g fill="#bfc9d2" fill-opacity=".61176"> <path d="m489.22 1020.1 77.407-27.349 53.132 150.37-77.406 27.352-53.132-150.37"/> </g> <g fill="#d4ebff" fill-opacity=".99608"> <path d="m503.72 1019.9 51.462-18.182q2.7503 7.7838 5.5006 15.568-25.731 9.0917-51.462 18.184-2.7504-7.7839-5.5008-15.569"/> </g> <g fill="#d4ebff" fill-opacity=".44706"> <path d="m251.18 994.01 248.74-87.886q13.934 39.436 27.868 78.873-124.37 43.943-248.74 87.887-13.934-39.437-27.869-78.874"/> </g> <g fill="#d4ebff" fill-opacity=".99608"> <path d="m314.73 910.61 142.79-50.453q6.0154 17.025 12.031 34.051-71.397 25.227-142.79 50.454-6.0158-17.026-12.032-34.051"/> </g> <g fill="#828c96"> <path d="m340.41 909.65 2.951-1.0421q2.5632-0.9062 4.1628-0.36495 1.6398 0.56055 2.3137 2.468 0.35819 1.0136 0.29885 1.8896-0.06463 0.86096-0.53957 1.6993-0.51877 0.9042-1.3128 1.5032-0.7068 0.52894-1.7553 0.94624-0.19604 0.07782-0.40405 0.1521l-6.3e-4 2.6e-4 -2.802 0.99003-2.912-8.2416zm23.978-1.912q0.12565-0.04995 0.25702-0.09645l-0.01927 0.0404q0.95375-0.337 1.7947-0.28215 0.84098 0.05499 1.5626 0.43689 0.56043 0.30499 1.22 1.1279 0.5728 0.71974 0.88354 1.599l-8.4054 2.9708q-0.43232-2.0775 0.29388-3.6752 0.6423-1.4165 2.413-2.1211zm73.161-25.85q0.1257-0.05007 0.25702-0.09647l-0.01916 0.0403q0.95364-0.3369 1.7945-0.28215 0.84086 0.05511 1.5625 0.43715 0.56044 0.305 1.22 1.128 0.57296 0.71967 0.88366 1.5989l-8.4055 2.9705q-0.43232-2.0774 0.29394-3.6752 0.6423-1.4166 2.413-2.121zm-103.1 27.204 0.47397 1.3412q0.15802 0.44716 0.64198 0.39343 0.28932-0.03517 1.8998-0.26887l6.1453 17.392-1.6419 0.99914q-0.41018 0.26233-0.25219 0.70954l0.46345 1.3117 2.1906-0.7743 2.9659-1.0476 2.1908-0.77437-0.46347-1.3115q-0.06842-0.1938-0.27539-0.3051-0.18678-0.1015-0.41128-0.0727-0.2595 0.0247-1.8306 0.2278l-2.4328-6.8853 1.9524-0.68933q0.64072-0.2269 0.97214-0.1429 0.38668 0.09804 0.73565 0.3268l8.4376 5.803q0.58423 0.51456 1.389 0.23014l0.9689-0.34198 1.6541-0.58476 0.55147-0.1949-0.47393-1.3412q-0.15797-0.44715-0.65677-0.38835l9.2e-4 -4.4e-4 0.02893-0.00966q-0.16498 0.0076-1.8193 0.3072l-7.0152-4.8137q-0.60776-0.43908-1.3048-0.56158 1.0186-0.62816 1.9546-1.6796 0.79398-0.8842 1.1944-1.9812 0.4002-1.097 0.41031-2.207 0.00408-1.1749-0.38041-2.2629-0.49493-1.4008-1.3573-2.3703-0.83145-0.92994-2.1398-1.4064-1.2881-0.46685-2.9356-0.3374-1.7272 0.1409-3.754 0.85694l-5.8868 2.0806-2.1909 0.77363zm29.099-3.2829q-1.4515 0.5775-2.4348 1.506-1.1552 1.0954-1.7212 2.4353-0.52719 1.2593-0.56714 2.9497-0.0318 1.5703 0.53162 3.1649 0.70563 1.9972 1.8048 3.3521 1.1349 1.4095 2.4364 2.0561 1.4276 0.7194 2.9286 0.7924 1.5011 0.0732 3.1554-0.5113 0.15255-0.05396 0.3103-0.11665 0.61316-0.24402 1.3061-0.62219 0.60422-0.33081 1.5017-1.0169 0.44872-0.34301 1.2219-1.2866 0.62126-0.75603 0.85865-1.4601l-1.1182-0.74495q-0.27368-0.20501-0.61639-0.08395-0.00843 0.00296-0.01687 0.0064-0.21794 0.0868-0.50987 0.4479-0.30337 0.3755-0.73535 0.8132-0.63364 0.6262-1.0974 0.9746-0.49591 0.3655-1.305 0.6874-0.18884 0.07505-0.3949 0.1479-0.99834 0.3528-2.0839 0.3171-1.0004-0.03204-1.9196-0.54553-1.005-0.56677-1.6549-1.4099-0.77816-1.016-1.2784-2.4318l9.2e-4 -4e-4 10.253-3.6228q0.02518-0.00895 0.04917-0.01847 0.34393-0.13673 0.42331-0.39993 0.06125-0.206-0.18098-0.8916-0.55294-1.5648-1.5091-2.7526-0.83322-1.0298-2.1249-1.6966-1.1251-0.57475-2.4753-0.60045-1.3677-0.03-2.6926 0.43175l0.00103-4.5e-4q0.01221-0.00425 0.02451-0.0086l-0.03348 0.0123-0.00183 1e-4q-0.17053 0.06116-0.33513 0.1266zm14.159-5.0015q-2.4556 0.9767-3.4333 2.7122-1.013 1.783-0.36011 3.6309 0.64255 1.8183 2.2982 2.4236 0.89526 0.30375 1.6713 0.36505 0.68576 0.0426 3.1941-0.02215 0.62867-0.07129 1.4502 0.02398 0.50607 0.05603 1.1725 0.42397 0.52002 0.2857 0.82538 1.1501 0.29485 0.83447-0.25703 1.8343-0.57965 0.99674-1.8888 1.5176-0.10375 0.04119-0.21245 0.07966-1.9374 0.6845-3.3605 0.50005-0.21856-0.47595-0.45706-0.96161-0.22391-0.49091-0.32728-0.68904-0.0834-0.18846-0.09917-0.2333-0.21591-0.3261-0.57346-0.1997l-1.1028 0.39035 1.4216 4.0234q2.7488-0.0492 5.2972-0.94956 0.15955-0.05644 0.31333-0.1178 2.2048-0.87714 3.2647-2.7558 1.0419-1.8432 0.25727-4.0641-0.60559-1.7138-2.2049-2.255-0.95587-0.3329-1.5609-0.33704l-1.6703-0.03026q-0.31998-0.00417-1.0793 0.0296-0.73905 0.04314-1.0188 0.05797-1.2739 0.04783-2.1324-0.43657-0.50424-0.24086-0.78336-1.031-0.26862-0.75994 0.3248-1.6905 0.59314-0.9273 1.7061-1.3702 0.08255-0.0328 0.168-0.0631l0.02997-0.01013q0.87915-0.31097 2.4906-0.49487 0.2343 0.5208 0.47817 1.0211 0.22378 0.49116 0.32739 0.6891 0.0885 0.2035 0.09906 0.23334 0.24222 0.40066 0.67441 0.24786l1.1775-0.41565-1.027-2.9066-0.37384-1.058q-2.7311 0.03405-4.2929 0.57805l0.0011-4e-4q0.00143-5e-4 0.00287-0.00105l-0.00312 0.00159-1.5e-4 -4.4e-4q-0.21869 0.07734-0.42651 0.1602zm6.3763-1.9775 0.4529 1.2818q0.17378 0.49175 0.6822 0.41265 0.33496-9.5e-4 1.8403-0.24805l2.6962 7.6306q0.91626 2.5932 2.842 3.7736 1.9399 1.1251 4.4138 0.25107 0.13653-0.04837 0.26965-0.10116 2.7418-1.091 3.9884-4.1695l0.80271 1.5603q0.38421 0.5182 0.93554 0.32335l3.8157-1.3476-0.46358-1.3121q-0.1633-0.46184-0.65686-0.388-0.2999 0.00526-1.8702 0.25836l-4.6812-13.249-2.7126 0.95825-2.1906 0.77398 0.46332 1.3117q0.17385 0.49174 0.6525 0.42326 1.5702-0.25306 1.87-0.2583l3.2385 9.1655q-1.107 2.6896-3.235 3.5362-0.09143 0.03636-0.1848 0.06944l-0.0105-0.02974q-1.6246 0.57405-2.7813-0.09014-1.1364-0.65466-1.7736-2.458l-3.4702-9.8215-4.9329 1.7436zm19.106-6.7508 0.45291 1.2817q0.17374 0.49173 0.62259 0.43375 0.26478-0.00975 1.8998-0.26905l3.8969 11.029-1.6577 0.9544q-0.38565 0.23696-0.2119 0.7286l0.4529 1.2818 7.109-2.5118-0.4529-1.2818q-0.17374-0.49174-0.6673-0.4178-0.08942 0.03146-0.97235 0.1423l-0.88725 0.1458-3.2807-9.2848q0.82284-2.4714 2.6101-3.1823 0.06762-0.02696 0.13671-0.0514 2.9211-1.0321 4.2163 2.6341l3.4808 9.8514 4.9184-1.7373-0.46358-1.3121q-0.16324-0.46186-0.65689-0.388-0.4585 0.07806-0.89246 0.13086-0.41387 0.06244-0.6585 0.08174-0.23917 0.0344-0.3042 0.0405l-2.6962-7.6307q-0.62127-1.7584 0.0245-3.1099 0.55301-1.1571 1.8384-1.6685 0.08121-0.0325 0.16548-0.06214 1.4753-0.52136 2.6564 0.11754 1.1006 0.60005 1.7641 2.4779l3.4808 9.8512 4.9182-1.7377-0.47397-1.3414q-0.16324-0.46185-0.65667-0.388-0.26496 0.00965-1.9 0.26895l-2.6962-7.6306q-0.98993-2.8018-2.8736-3.8628-0.94454-0.53826-2.0545-0.54836-1.2302-0.0179-2.5118 0.43484-0.08368 0.0296-0.16662 0.06266-1.2152 0.48354-2.2465 1.6955-1.0773 1.2691-1.1537 3.1403-0.96839-1.3176-2.2277-1.8451-1.2995-0.54669-2.8794 0.01146-0.0936 0.03316-0.185 0.06966-2.272 0.90369-3.3285 3.8877l-0.01055-0.02995-0.76675-1.5058q-0.37372-0.4884-0.9253-0.29365l-1.5945 0.5638-2.191 0.7738zm33.52-12.121q-1.4515 0.57735-2.4346 1.506-1.1553 1.0955-1.7212 2.4353-0.52747 1.2592-0.56729 2.9497-0.03186 1.5704 0.53162 3.165 0.7057 1.9971 1.8046 3.3521 1.1351 1.4096 2.4364 2.0562 1.4277 0.7194 2.9287 0.7925 1.501 0.073 3.1554-0.5115 0.15262-0.05384 0.31046-0.1165 0.61318-0.24417 1.3061-0.6223 0.60409-0.33085 1.5016-1.0165 0.4488-0.3432 1.222-1.2867 0.62115-0.75617 0.85861-1.4604l-1.1182-0.7447q-0.27362-0.205-0.6164-0.0839-0.00833 3e-3 -0.01681 0.0061-0.21811 0.0869-0.50986 0.44824-0.30328 0.37531-0.7354 0.81296-0.63383 0.62625-1.0974 0.9745-0.49598 0.3655-1.3052 0.6874-0.18872 0.07507-0.39453 0.14794-0.9986 0.35276-2.0841 0.3172-1.0004-0.03214-1.9194-0.54554-1.005-0.5668-1.6551-1.4102-0.77805-1.0158-1.2783-2.4318l0.00168-6.7e-4 10.252-3.6223q0.02503-0.00884 0.04914-0.01824 0.34368-0.13685 0.42318-0.39997 0.06125-0.20623-0.18092-0.89178-0.553-1.5646-1.5089-2.7525-0.8334-1.0298-2.125-1.6966-1.1252-0.5748-2.4754-0.6006-1.3656-0.02984-2.6887 0.43036l0.00172-7.9e-4q0.00988-0.00347 0.01993-0.00702l-0.02487 0.00875-0.00108 4e-4q-0.1754 0.06257-0.34457 0.12995z"/> </g> <g fill="#d4ebff" fill-opacity=".51373"> <path d="m200.38 880.36 65.054-22.985q13.469 38.119 26.938 76.239-32.527 11.493-65.054 22.986-13.469-38.12-26.938-76.24"/> </g> <g fill="#8795a2"> <path d="m247.1 909.03c9.2513-3.2699 9.3079-13.709 7.4905-21.627-2.2386-9.7538-9.1642-15.243-19.258-11.677-10.092 3.5656-12.034 12.188-7.6476 21.183 3.5611 7.3006 10.163 15.391 19.415 12.12z"/> <path d="m279.92 922.25c-1.1446-2.9169-2.5386-5.7609-4.081-8.4857-1.8684-3.3007-4.4873-8.1828-8.3723-9.3908-2.2469-0.69854-4.7032-0.32019-7.0214-0.4013-1.1282-0.03919-2.1523-0.11231-3.1408-0.25804-1.7218 4.0762-4.8178 6.984-9.087 8.493-4.2678 1.5078-8.503 1.1902-12.404-0.8997-0.67734 0.73456-1.4283 1.4347-2.2813 2.174-1.7528 1.5194-3.9015 2.7682-5.2104 4.7232-2.2638 3.3813-1.2344 8.8243-0.61453 12.566 0.51175 3.0891 1.2137 6.1776 2.1559 9.1661 0.72992 2.3149 1.9724 2.2363 4.1298 2.2509 2.7013 0.0175 5.4016-0.2153 8.0777-0.5693 5.1682-0.6838 10.401-1.6547 15.35-3.3638 4.9239-1.7794 9.6056-4.3116 14.056-7.0263 2.3044-1.4053 4.5516-2.921 6.642-4.6316 1.6703-1.3667 2.686-2.0865 1.7997-4.346z"/> </g> <g fill="#bfc9d2" fill-opacity=".99608"> <path d="m348.22 1253 252.92-89.362q4.834 13.681 9.668 27.362-126.46 44.682-252.91 89.364-4.8342-13.682-9.6685-27.364"/> </g> <g fill="#bbdfff"> <path d="m353.73 1225.7 108.47-38.324 4.7601 13.472-108.47 38.326-4.7606-13.474z"/> <path d="m346.54 1205.4 168.04-59.372q2.38 6.7362 4.7602 13.473-84.017 29.687-168.04 59.373-2.3804-6.7368-4.7607-13.474z"/> <path d="m339.35 1185.1 129.96-45.92q2.38 6.7359 4.7605 13.473-64.981 22.961-129.96 45.921-2.3803-6.737-4.7607-13.474z"/> <path d="m332.17 1164.7 82.41-29.118 82.41-29.118q2.38 6.7359 4.7604 13.473-82.41 29.119-164.82 58.237-2.3804-6.7368-4.7605-13.473z"/> <path d="m324.21 1146.7 108.47-38.324 4.7601 13.472-108.47 38.326-4.7606-13.473z"/> <path d="m317.02 1126.3 168.04-59.372q2.3802 6.7361 4.7606 13.473-84.018 29.686-168.04 59.373-2.3804-6.737-4.7606-13.473z"/> <path d="m302.65 1085.7 82.41-29.119 82.41-29.118q2.3804 6.7368 4.7605 13.473-82.41 29.118-164.82 58.237-2.3803-6.7368-4.7606-13.473z"/> <path d="m309.83 1106 129.96-45.92q2.3803 6.7366 4.7605 13.473-64.981 22.96-129.96 45.921-2.3805-6.7371-4.7608-13.474z"/> </g> <g fill="#848c93"> <path d="m283.35 1094.4 10.634-3.7564q1.7209 4.8704 3.4418 9.741-5.3168 1.8789-10.634 3.7575-1.721-4.8708-3.4422-9.7421z"/> <path d="m290.46 1114.5 10.634-3.7571 3.442 9.7415-10.634 3.7575-3.4422-9.7419z"/> <path d="m297.57 1134.7 5.3174-1.8779 5.3166-1.8794q1.7211 4.8708 3.4418 9.7412-5.3169 1.8786-10.634 3.7575-1.7209-4.8706-3.442-9.7414z"/> <path d="m304.68 1154.8 10.634-3.7568 3.4416 9.7407-10.634 3.7578-3.4421-9.7417z"/> <path d="m311.46 1174 5.317-1.8786 5.317-1.8782q1.7209 4.8703 3.4419 9.7412-5.3168 1.8787-10.634 3.7573-1.721-4.8708-3.4421-9.7417z"/> <path d="m332.79 1234.3 10.634-3.7566 3.4416 9.7402-10.634 3.7578-3.4419-9.7414z"/> <path d="m325.68 1214.2 5.3176-1.8774 5.3164-1.8799q1.7211 4.8711 3.442 9.7412-5.3169 1.8787-10.634 3.7578-1.7211-4.8706-3.4422-9.7417z"/> <path d="m318.57 1194.1 10.634-3.7571 3.4418 9.7411-10.634 3.7575-3.4419-9.7415z"/> </g> <g fill="#fff"> <path d="m246.72 919.4 314.02-110.95q76.273 215.87 152.55 431.73-157.01 55.478-314.02 110.96-76.273-215.87-152.55-431.73"/> </g> <g fill="#bfc9d2" fill-opacity=".78431"> <path d="m498.95 842.28 55.524-19.618 3.7301 10.557-55.523 19.619-3.7305-10.558"/> <path d="m521.69 850.19 37.792-13.353 3.7302 10.557-37.792 13.354-3.7303-10.558"/> </g> <g fill="#bfc9d2" fill-opacity=".61176"> <path d="m552.91 1065.8 77.407-27.349 53.132 150.37-77.406 27.352-53.133-150.37"/> </g> <g fill="#d4ebff" fill-opacity=".99608"> <path d="m567.41 1065.6 51.462-18.183q2.7502 7.784 5.5006 15.567-25.731 9.0921-51.462 18.184-2.7505-7.7842-5.5008-15.569"/> </g> <g fill="#d4ebff" fill-opacity=".44706"> <path d="m314.87 1039.7 248.74-87.886q13.934 39.436 27.869 78.873-124.37 43.943-248.74 87.887-13.934-39.437-27.869-78.874"/> </g> <g fill="#d4ebff" fill-opacity=".99608"> <path d="m378.42 956.33 142.79-50.453q6.0155 17.025 12.031 34.051-71.397 25.227-142.79 50.454-6.0158-17.026-12.032-34.051"/> </g> <g fill="#828c96"> <path d="m404.1 955.37 2.951-1.0422q2.5633-0.906 4.1628-0.36475 1.6398 0.56055 2.3138 2.468 0.35816 1.0135 0.29882 1.8895-0.06463 0.86095-0.53956 1.6992-0.51882 0.9043-1.3129 1.5033-0.70679 0.52893-1.7553 0.9463-0.196 0.07775-0.40405 0.1521l-6.5e-4 2.4e-4 -2.802 0.98986-2.912-8.2416zm23.978-1.9119q0.12565-0.04986 0.25703-0.09643l-0.01929 0.04043q0.95376-0.33706 1.7947-0.2822 0.84098 0.055 1.5626 0.4369 0.56042 0.3049 1.22 1.1279 0.57282 0.7196 0.88352 1.5989l-8.4054 2.9707q-0.43231-2.0775 0.29387-3.6752 0.64232-1.4165 2.413-2.121zm73.161-25.85q0.12572-0.05005 0.257-0.09644l-0.01916 0.04029q0.95366-0.33692 1.7945-0.28215 0.84082 0.0551 1.5625 0.4371 0.56043 0.305 1.22 1.1281 0.57293 0.71966 0.88366 1.5989l-8.4055 2.9705q-0.4323-2.0774 0.29396-3.6752 0.64227-1.4166 2.413-2.121zm-103.1 27.204 0.47393 1.3413q0.15803 0.44715 0.64198 0.39344 0.28934-0.03514 1.8998-0.2688l6.1453 17.392-1.6419 0.99917q-0.41015 0.2623-0.2522 0.70945l0.46348 1.3118 2.1907-0.7743 2.966-1.0476 2.1908-0.7743-0.46346-1.3115q-0.06843-0.19384-0.2754-0.30505-0.18677-0.10155-0.4113-0.07275-0.25948 0.0248-1.8306 0.2278l-2.4328-6.8853 1.9524-0.6893q0.64072-0.22693 0.97214-0.1428 0.38672 0.098 0.73566 0.32663l8.4376 5.8031q0.58424 0.51453 1.389 0.23011l0.9689-0.34194 1.654-0.5848 0.55148-0.19485-0.47393-1.3413q-0.15796-0.44714-0.65674-0.38844l8.8e-4 -3.5e-4 0.02896-0.00965q-0.165 0.0076-1.8193 0.30726l-7.0152-4.8137q-0.60773-0.43909-1.3048-0.56154 1.0186-0.6283 1.9546-1.6797 0.79398-0.8841 1.1945-1.9812 0.4002-1.0969 0.4103-2.2069 0.0041-1.1749-0.3804-2.2629-0.49493-1.4008-1.3573-2.3703-0.83144-0.92994-2.1398-1.4064-1.2881-0.4668-2.9356-0.3374-1.7272 0.1409-3.7541 0.8568l-5.8867 2.0806-2.1909 0.77356zm29.099-3.2827q-1.4514 0.5775-2.4347 1.506-1.1552 1.0954-1.7212 2.4354-0.5272 1.2593-0.56714 2.9497-0.0318 1.5702 0.53161 3.1648 0.7056 1.9973 1.8047 3.3522 1.1349 1.4095 2.4364 2.0561 1.4276 0.7195 2.9286 0.7925 1.5011 0.07324 3.1554-0.51135 0.15256-0.05395 0.31033-0.1167 0.61313-0.2439 1.306-0.62219 0.60422-0.33069 1.5016-1.0169 0.44874-0.343 1.222-1.2866 0.62121-0.7561 0.85861-1.4601l-1.1182-0.745q-0.27368-0.20507-0.61638-0.084-0.00843 0.0031-0.0169 0.0065-0.2179 0.0868-0.50984 0.4479-0.30338 0.37546-0.73536 0.8132-0.63363 0.6262-1.0974 0.9746-0.49591 0.3654-1.305 0.6874-0.18883 0.07506-0.3949 0.1478-0.99835 0.3529-2.0839 0.31716-1.0004-0.03211-1.9196-0.54556-1.005-0.5669-1.6549-1.4099-0.77816-1.016-1.2784-2.4318l9.1e-4 -4.9e-4 10.253-3.6227q0.02513-0.00905 0.04912-0.0186 0.34393-0.1367 0.42331-0.39975 0.06125-0.20605-0.18097-0.89161-0.55296-1.5649-1.5091-2.7527-0.83322-1.0299-2.1249-1.6967-1.1251-0.57476-2.4753-0.60046-1.3676-0.02994-2.6926 0.4317l0.00105-4.4e-4q0.0122-0.00426 0.0245-0.0086l-0.03348 0.0123-0.00182 1e-4q-0.17055 0.06116-0.33516 0.1266zm14.159-5.0014q-2.4556 0.97667-3.4333 2.7122-1.013 1.783-0.3601 3.6309 0.64254 1.8183 2.2982 2.4235 0.89527 0.30386 1.6713 0.36512 0.68576 0.0426 3.1941-0.02222 0.62866-0.07129 1.4502 0.02406 0.50608 0.056 1.1725 0.42394 0.52003 0.28566 0.82538 1.15 0.29485 0.8346-0.25702 1.8343-0.57965 0.99684-1.8888 1.5176-0.10376 0.0411-0.21246 0.0796-1.9374 0.68455-3.3605 0.5001-0.21857-0.47595-0.45703-0.96155-0.22391-0.49095-0.32727-0.68908-0.08341-0.18847-0.09919-0.23327-0.21591-0.3262-0.57345-0.1997l-1.1028 0.39037 1.4216 4.0233q2.7488-0.0492 5.2972-0.9496 0.15955-0.0564 0.31333-0.1178 2.2048-0.8772 3.2647-2.7557 1.0419-1.8434 0.25729-4.0642-0.60559-1.7138-2.205-2.255-0.95588-0.33289-1.5609-0.33705l-1.6703-0.03026q-0.31998-0.00414-1.0793 0.0296-0.73906 0.04316-1.0188 0.05796-1.2739 0.0479-2.1324-0.43656-0.50423-0.24084-0.78335-1.0309-0.26862-0.75996 0.3248-1.6906 0.59314-0.92731 1.706-1.3702 0.08255-0.03286 0.168-0.06306l0.02997-0.0102q0.87915-0.31095 2.4905-0.49485 0.23434 0.52081 0.47818 1.0212 0.22378 0.4911 0.32738 0.68905 0.0885 0.20349 0.09907 0.23335 0.24223 0.4006 0.67441 0.24785l1.1775-0.41565-1.4009-3.9646q-2.7312 0.03406-4.2929 0.5781l0.0011-4.6e-4q0.00144-4.9e-4 0.00287-0.00104l-0.00311 0.0016-1.4e-4 -4e-4q-0.2187 0.0773-0.42653 0.1602zm6.3763-1.9776 0.45291 1.2818q0.17377 0.49176 0.68219 0.41266 0.33497-9e-4 1.8403-0.24805l2.6962 7.6306q0.91625 2.5932 2.842 3.7736 1.9399 1.1251 4.4138 0.2511 0.13654-0.04835 0.26965-0.1012 2.7418-1.091 3.9884-4.1694l0.8027 1.5602q0.38422 0.51816 0.93555 0.32336l3.8158-1.3475-0.46362-1.312q-0.1633-0.46192-0.65686-0.388-0.29994 0.00518-1.8702 0.2583l-4.6812-13.249-2.7126 0.95826-2.1906 0.77404 0.46332 1.3115q0.17385 0.49176 0.65249 0.42336 1.5703-0.25314 1.87-0.2584l3.2385 9.1655q-1.107 2.6896-3.235 3.5363-0.09143 0.03625-0.18482 0.06945l-0.0105-0.02978q-1.6246 0.57397-2.7813-0.09021-1.1364-0.65466-1.7736-2.4579l-3.4702-9.8216-4.9329 1.7436zm19.106-6.7508 0.45292 1.2818q0.17372 0.49175 0.62258 0.43376 0.26477-0.00976 1.8998-0.26896l3.8968 11.029-1.6577 0.9544q-0.38568 0.23695-0.21195 0.7286l0.45292 1.2818 7.109-2.5118-0.45291-1.2818q-0.17374-0.49175-0.6673-0.41784-0.08942 0.03154-0.97235 0.14234l-0.88724 0.1458-3.2807-9.2848q0.82284-2.4714 2.6101-3.1824 0.06766-0.02695 0.13673-0.05135 2.9211-1.0321 4.2163 2.634l3.4808 9.8514 4.9184-1.7374-0.46364-1.3121q-0.1632-0.46186-0.65685-0.388-0.45849 0.0781-0.89245 0.13085-0.41388 0.06245-0.6585 0.08175-0.23915 0.0344-0.3042 0.0405l-2.6962-7.6307q-0.62134-1.7585 0.02448-3.1099 0.55304-1.157 1.8384-1.6685 0.08117-0.0324 0.16546-0.0621 1.4753-0.5214 2.6564 0.11754 1.1006 0.60006 1.7641 2.4779l3.4807 9.8512 4.9183-1.7377-0.47394-1.3414q-0.16327-0.4619-0.65667-0.388-0.26502 0.00965-1.9 0.26887l-2.6962-7.6307q-0.98999-2.8018-2.8736-3.8628-0.94452-0.5383-2.0545-0.54834-1.2302-0.01796-2.5118 0.43484-0.08367 0.0296-0.16662 0.06265-1.2152 0.48355-2.2465 1.6955-1.0773 1.269-1.1537 3.1402-0.96834-1.3176-2.2277-1.845-1.2995-0.54674-2.8794 0.01141-0.09355 0.03315-0.18499 0.06965-2.272 0.9037-3.3285 3.8877l-0.01056-0.03-0.76676-1.5057q-0.37372-0.4884-0.92522-0.29354l-1.5946 0.56379-2.191 0.7738zm33.52-12.121q-1.4515 0.5773-2.4346 1.506-1.1553 1.0954-1.7212 2.4352-0.52747 1.2593-0.56727 2.9497-0.03186 1.5704 0.53162 3.165 0.70569 1.997 1.8046 3.3522 1.1351 1.4096 2.4364 2.0562 1.4277 0.7194 2.9287 0.7925 1.5011 0.073 3.1554-0.5115 0.15257-0.05385 0.3104-0.11653 0.61323-0.24417 1.3061-0.62217 0.60407-0.33096 1.5016-1.0166 0.44879-0.3432 1.2219-1.2868 0.62116-0.75613 0.85865-1.4604l-1.1182-0.74469q-0.27363-0.20502-0.6164-0.08395-0.00837 3e-3 -0.0168 0.00613-0.21813 0.08692-0.50988 0.44827-0.30328 0.37534-0.73542 0.81296-0.63378 0.62628-1.0974 0.97449-0.49597 0.36555-1.3052 0.68745-0.18878 0.07506-0.39452 0.14794-0.99867 0.35276-2.0842 0.3172-1.0004-0.03214-1.9194-0.54554-1.0051-0.5669-1.6551-1.4103-0.778-1.0158-1.2783-2.4317l0.00171-6.1e-4 10.252-3.6224q0.02502-0.0089 0.04913-0.0183 0.34369-0.1368 0.42316-0.39993 0.06128-0.20617-0.18085-0.89177-0.55304-1.5647-1.509-2.7525-0.83338-1.0299-2.125-1.6967-1.1252-0.57475-2.4754-0.60056-1.3657-0.02984-2.6887 0.43036l0.00171-7.4e-4q0.00989-0.00356 0.01996-0.00706l-0.0249 0.0087-0.00104 4.4e-4q-0.17541 0.06256-0.3446 0.12996z"/> </g> <g fill="#d4ebff" fill-opacity=".51373"> <path d="m264.07 926.08 65.054-22.985q13.469 38.119 26.938 76.239-32.527 11.493-65.054 22.986-13.469-38.12-26.938-76.24"/> </g> <g fill="#8795a2"> <path d="m310.79 954.75c9.2514-3.2699 9.3079-13.709 7.4905-21.627-2.2386-9.7537-9.1642-15.243-19.258-11.677-10.092 3.5657-12.034 12.188-7.6476 21.183 3.5611 7.3006 10.163 15.391 19.415 12.12z"/> <path d="m343.61 967.96c-1.1446-2.9167-2.5386-5.7607-4.081-8.4856-1.8684-3.3008-4.4873-8.1827-8.3723-9.3906-2.2469-0.69855-4.7032-0.3202-7.0213-0.4013-1.1282-0.0392-2.1523-0.1123-3.1408-0.25807-1.7218 4.0762-4.8178 6.984-9.087 8.493-4.2678 1.5078-8.503 1.1902-12.404-0.89964-0.67734 0.73449-1.4283 1.4347-2.2813 2.1739-1.7528 1.5194-3.9015 2.7681-5.2104 4.7232-2.2638 3.3814-1.2344 8.8242-0.61454 12.566 0.51178 3.0893 1.2137 6.1778 2.1559 9.1663 0.72992 2.3148 1.9724 2.2362 4.1298 2.2508 2.7013 0.01746 5.4016-0.21534 8.0777-0.56934 5.1682-0.68383 10.401-1.6547 15.35-3.3638 4.9239-1.7794 9.6056-4.3116 14.056-7.0264 2.3044-1.4054 4.5516-2.9212 6.642-4.6316 1.6703-1.3668 2.686-2.0866 1.7997-4.3461z"/> </g> <g fill="#bfc9d2" fill-opacity=".99608"> <path d="m411.91 1298.7 252.92-89.362q4.8338 13.681 9.6679 27.362-126.46 44.682-252.91 89.364-4.8342-13.682-9.6685-27.364"/> </g> <g fill="#bbdfff"> <path d="m417.42 1271.4 108.47-38.324 4.7601 13.472-108.47 38.326-4.7606-13.473z"/> <path d="m410.23 1251.1 168.04-59.371q2.38 6.7358 4.7604 13.473-84.018 29.686-168.04 59.372-2.3804-6.7368-4.7607-13.474z"/> <path d="m403.05 1230.8 129.96-45.92q2.38 6.7359 4.7605 13.473-64.981 22.961-129.96 45.921-2.3803-6.7369-4.7607-13.474z"/> <path d="m395.86 1210.4 82.41-29.119 82.41-29.118q2.38 6.7358 4.7606 13.473-82.41 29.119-164.82 58.237-2.3804-6.7368-4.7605-13.473z"/> <path d="m387.9 1192.4 108.47-38.324 4.7601 13.472-108.47 38.326-4.7606-13.474z"/> <path d="m380.71 1172.1 168.04-59.372q2.3801 6.736 4.7605 13.473-84.018 29.686-168.04 59.372-2.3804-6.7368-4.7606-13.473z"/> <path d="m366.34 1131.4 82.41-29.119 82.41-29.118q2.3804 6.7368 4.7605 13.473-82.41 29.118-164.82 58.237-2.3803-6.737-4.7606-13.473z"/> <path d="m373.53 1151.7 129.96-45.92q2.3803 6.7364 4.7606 13.473-64.981 22.96-129.96 45.92-2.3805-6.7368-4.7608-13.474z"/> </g> <g fill="#848c93"> <path d="m347.05 1140.1 5.3172-1.8782 5.3171-1.8781q1.7209 4.8703 3.4418 9.7409-5.3168 1.8789-10.634 3.7574-1.721-4.8706-3.4422-9.742z"/> <path d="m354.16 1160.3 10.634-3.7568 3.442 9.7412-10.634 3.7578-3.4421-9.7422z"/> <path d="m361.26 1180.4 5.3173-1.8781 5.3166-1.8792q1.7211 4.8706 3.4418 9.741-5.3169 1.8787-10.634 3.7576-1.7209-4.8704-3.4419-9.7413z"/> <path d="m368.37 1200.5 10.634-3.7566 3.4416 9.7405-10.634 3.7578-3.4421-9.7417z"/> <path d="m375.15 1219.7 5.3171-1.8787 5.317-1.8784q1.7209 4.8706 3.4419 9.7412-5.3168 1.8789-10.634 3.7576-1.7211-4.8709-3.4421-9.7417z"/> <path d="m396.48 1280.1 10.634-3.7569 3.4416 9.7405-10.634 3.7576-3.4419-9.7412z"/> <path d="m389.37 1259.9 5.3176-1.8777 5.3164-1.8796q1.7211 4.8708 3.442 9.7412-5.3169 1.8787-10.634 3.7578-1.7211-4.8706-3.4422-9.7417z"/> <path d="m382.26 1239.8 10.634-3.7568 3.4418 9.7409-10.634 3.7577-3.442-9.7418z"/> </g> <g fill="#fff"> <path d="m403.67 858.87 333.05 8e-4q0 228.94-1.3e-4 457.89-166.52 2e-4 -333.05 6e-4 0-228.94 0-457.89"/> </g> <g fill="#bfc9d2" fill-opacity=".78431"> <path d="m667.17 870.18 58.888 6.1e-4v11.196l-58.888 6e-4v-11.198"/> <path d="m685.98 885.21 40.082 2.3e-4v11.197l-40.082 4.5e-4v-11.198"/> </g> <g fill="#bfc9d2" fill-opacity=".61176"> <path d="m643.57 1099 82.096 0.0016v159.48l-82.096 0.0015-1e-4 -159.49"/> </g> <g fill="#d4ebff" fill-opacity=".99608"> <path d="m657.33 1103.6 54.58 9e-4q0 8.2552 0 16.511-27.29 3e-4 -54.58 3e-4 0-8.2559 0-16.512"/> </g> <g fill="#d4ebff" fill-opacity=".44706"> <path d="m427.83 995.02 263.81 8e-4q0 41.826 0 83.652-131.9-1e-4 -263.81 0 0-41.826-6e-5 -83.653"/> </g> <g fill="#d4ebff" fill-opacity=".99608"> <path d="m515.54 937.56 151.45 6e-4q-1e-4 18.057-1e-4 36.114-75.723 0-151.45 2.5e-4 0-18.057 0-36.115"/> </g> <g fill="#3c464f"> <path d="m540.07 945.21 3.1298 6.1e-4q2.7187-5.6e-4 4.0465 1.0427 1.3594 1.0748 1.3594 3.0979 0 1.0749-0.34764 1.881-0.3479 0.7904-1.075 1.4226-0.79043 0.6797-1.7386 0.97995-0.84267 0.26325-1.9702 0.30731-0.21084 0.00818-0.43167 0.00894h-7.3e-4l-2.9718-1e-4v-8.741zm23.246 6.1856q0.13516-0.00531 0.27444-0.00531l-0.03164 0.03161q1.0116 0 1.7862 0.33194 0.77465 0.332 1.3278 0.9326 0.4269 0.47423 0.77455 1.4699 0.30041 0.8694 0.30041 1.802l-8.9149 5e-4q0.28455-2.1028 1.5016-3.3673 1.0774-1.1217 2.9817-1.196zm77.594 0q0.1353-0.00526 0.27455-0.00526l-0.03161 0.03156q1.0115 0 1.786 0.33184 0.77455 0.33204 1.3276 0.93275 0.42687 0.47415 0.7745 1.47 0.30044 0.8694 0.30044 1.802l-8.9148 4e-4q0.2843-2.1027 1.5015-3.3673 1.0775-1.1216 2.9818-1.196zm-106.28-8.6989v1.4226q0 0.47425 0.47414 0.58485 0.28456 0.0633 1.881 0.37944v18.446l-1.881 0.39505q-0.47414 0.11072-0.47414 0.58495v1.3911l2.3235-2e-4 3.1455 4.7e-4 2.3236-1.3e-4v-1.3911q0-0.20543-0.15794-0.37927-0.14236-0.15796-0.36376-0.20581-0.2528-0.06311-1.8019-0.39505v-7.3025l2.0708 5.6e-4q0.6797-5e-4 0.9641 0.1892 0.33206 0.2212 0.58486 0.5531l6.0222 8.2826q0.3795 0.67969 1.233 0.67969l1.0275 3.6e-4 1.7544-3.6e-4h0.5848v-1.4226q0-0.47413-0.48986-0.58493h0.0011l0.0304 6e-4q-0.15808-0.0479-1.8176-0.3167l-5.0107-6.8758q-0.42677-0.61644-1.0432-0.96424 1.1697-0.2529 2.4026-0.9325 1.0432-0.5691 1.7862-1.47 0.7428-0.90104 1.122-1.9443 0.39538-1.1065 0.39538-2.2603 0-1.4858-0.49013-2.687-0.4742-1.1539-1.549-2.039-1.059-0.86938-2.6554-1.2962-1.6754-0.44254-3.8252-0.44254l-6.2437 3.7e-4 -2.3235-4.3e-4zm28.53 6.5989q-1.5609 0.06096-2.7974 0.60883-1.4542 0.64803-2.4342 1.7229-0.91665 1.0117-1.5174 2.5923-0.5531 1.47-0.5531 3.1612 0 2.1183 0.5848 3.7621 0.6005 1.707 1.6122 2.7503 1.1065 1.1539 2.4974 1.7229 1.391 0.56907 3.1455 0.56907 0.16174 0 0.33144-0.00657 0.6594-0.0258 1.4387-0.15164 0.6799-0.11059 1.7546-0.45826 0.53736-0.17406 1.5808-0.80626 0.83765-0.50574 1.296-1.0906l-0.80617-1.0748q-0.1897-0.28453-0.5532-0.28453-0.0089 0-0.0181 3.5e-4 -0.23435 0.00928-0.63 0.25255-0.411 0.25295-0.9641 0.52175-0.80614 0.37915-1.3595 0.55322-0.58934 0.17933-1.4593 0.21323-0.20312 0.00796-0.42163 0.00796-1.0589 1.4e-4 -2.0705-0.39526-0.93264-0.3635-1.6281-1.1538-0.75877-0.8693-1.0907-1.8809-0.3951-1.2171-0.3951-2.7188h9.6e-4 10.874q0.02674 0 0.05249-9.6e-4 0.36975-0.0144 0.53235-0.23608 0.12634-0.17396 0.12634-0.901 0-1.6597-0.50574-3.098-0.4425-1.2487-1.4384-2.3077-0.86938-0.9168-2.1339-1.391-1.2795-0.48386-2.6826-0.48996h0.0011q0.0131-1e-4 0.026-1e-4l-0.0355 4.4e-4 -0.00195-3.4e-4q-0.18105 7.7e-4 -0.35805 0.00754zm15.016 0.00126q-2.6407 0.1029-4.1407 1.4137-1.5491 1.3435-1.5491 3.3034 0 1.9285 1.3594 3.0508 0.74294 0.58485 1.4542 0.901 0.6323 0.26865 3.0189 1.0432 0.6166 0.14224 1.3594 0.50574 0.4585 0.22143 0.9642 0.79046 0.39516 0.44251 0.39516 1.3592 0 0.88515-0.8534 1.6439-0.87866 0.74682-2.2865 0.80176-0.11156 0.00427-0.22693 0.00427-2.0547 0-3.3351-0.64807-0.04735-0.5216-0.11059-1.059-0.04746-0.53748-0.07896-0.75867-0.0159-0.20547-0.0159-0.25293-0.09484-0.3794-0.4741-0.3794l-1.1698 6.1e-4v4.2671q2.6081 0.86936 5.311 0.86936 0.1691 0 0.3346-0.00656 2.3711-0.09241 3.9964-1.5107 1.5964-1.3909 1.5964-3.7462 0-1.8177-1.3276-2.8609-0.7904-0.63235-1.3595-0.8378l-1.5648-0.58495q-0.3003-0.11045-1.0274-0.33179-0.7112-0.20546-0.98-0.28466-1.217-0.37916-1.8651-1.1221-0.3953-0.3951-0.3953-1.233 0-0.80615 0.8695-1.4857 0.8683-0.67688 2.0651-0.7237 0.0887-0.00348 0.1793-0.00348l0.03174 4.9e-4q0.93262-4.9e-4 2.5132 0.36305 0.0475 0.5691 0.11075 1.1222 0.04735 0.53746 0.0791 0.75873 0.01565 0.22123 0.01565 0.25287 0.09494 0.45849 0.5533 0.45849l1.2487 3.7e-4v-3.0827-1.1223q-2.5866-0.87768-4.2404-0.88504l0.00124-1e-4q0.00156 0 0.00306 0l-0.00355 4.4e-4v-4.4e-4q-0.23195 1e-4 -0.45545 0.0089zm6.6709 0.2597v1.3595q0 0.52163 0.50574 0.61636 0.31616 0.11074 1.8178 0.37934v8.093q0 2.7504 1.4225 4.5049 1.4542 1.707 4.0781 1.707 0.1448 0 0.28796-0.00549 2.9486-0.11524 5.1495-2.6026l0.23706 1.7387q0.1897 0.61655 0.77444 0.61655l4.0466 6.1e-4v-1.3916q0-0.48996-0.4901-0.58471-0.2844-0.09495-1.8494-0.3794l1.5e-4 -14.052-2.8768-2e-4h-2.3235v1.391q0 0.5217 0.47427 0.61654 1.5648 0.28446 1.8491 0.37936v9.7209q-1.9397 2.1671-4.2283 2.2565-0.09836 0.0038-0.1975 0.0038v-0.0315q-1.7229 0-2.5923-1.0116-0.85339-0.9959-0.85339-2.9084l1.2e-4 -10.417-5.2321 6.4e-4zm20.264 2e-4v1.3594q0 0.52155 0.4425 0.61639 0.25295 0.07896 1.8809 0.37926v11.697l-1.881 0.34775q-0.4425 0.095-0.4425 0.61636v1.3594h7.5397v-1.3594q0-0.5216-0.4899-0.61636-0.09485 0-0.96423-0.18967l-0.88527-0.15808v-9.8474q1.5993-2.056 3.5213-2.1309 0.07274-0.00296 0.14599-0.00296 3.098 0 3.0979 3.8883v10.448l5.2162 6.1e-4v-1.3916q0-0.48996-0.49014-0.58471-0.45835-0.07911-0.885-0.17395-0.411-0.079-0.6482-0.14234-0.2369-0.04736-0.3003-0.06311v-8.093q0-1.865 1.0591-2.9241 0.907-0.9068 2.2893-0.96075 0.0873-0.00345 0.1768-0.00345 1.5646 0 2.4654 0.9959 0.83777 0.9325 0.83777 2.9241v10.448h5.2162v-1.4226q0-0.48996-0.4899-0.58471-0.25303-0.07911-1.8811-0.3794v-8.093q0-2.9715-1.4225-4.5995-0.71115-0.82216-1.7545-1.2014-1.1538-0.42673-2.513-0.42673-0.08875 0-0.17795 0.0036-1.3069 0.0509-2.6831 0.8501-1.4385 0.83756-2.1339 2.5764-0.47413-1.565-1.4859-2.4818-1.0431-0.9484-2.7186-0.9484-0.09926 0-0.19777 0.00394-2.4431 0.09522-4.4335 2.5567v-0.03168l-0.22131-1.6753q-0.18955-0.585-0.77455-0.585l-1.6914 5e-4 -2.3235-5e-4zm35.643-0.26116q-1.5609 0.06091-2.7972 0.60896-1.4542 0.64794-2.4342 1.7228-0.91674 1.0116-1.5174 2.5923-0.55324 1.47-0.55324 3.1612 0 2.1182 0.58484 3.762 0.6006 1.707 1.6123 2.7503 1.1064 1.1539 2.4973 1.723 1.391 0.56897 3.1455 0.56897 0.162 0 0.3316-0.00657 0.6595-0.0258 1.4387-0.1515 0.6798-0.11073 1.7546-0.45827 0.5375-0.17407 1.5807-0.80613 0.83754-0.506 1.2962-1.0908l-0.80626-1.0747q-0.1897-0.28443-0.5531-0.28443-0.0089 0-0.0181 1.2e-4 -0.2346 0.00928-0.62986 0.25269-0.41114 0.25293-0.96434 0.52161-0.8062 0.37925-1.3594 0.55322-0.5895 0.17943-1.4596 0.21323-0.203 0.0081-0.4214 0.0081-1.0591 0-2.0706-0.3953-0.9325-0.3635-1.628-1.1537-0.7589-0.86938-1.0908-1.8811-0.39514-1.2171-0.39514-2.7188h0.00184 10.873q0.02661 0 0.05234-8.4e-4 0.3698-0.01452 0.5324-0.2362 0.12644-0.17386 0.12644-0.901 0-1.6596-0.50574-3.0981-0.4426-1.2486-1.4384-2.3076-0.86938-0.91685-2.1339-1.391-1.2777-0.4831-2.6785-0.4899l0.00193-2e-4q0.0105 0 0.02114 0h-0.02649-9.5e-4q-0.1863 5.6e-4 -0.3683 0.00764z"/> </g> <g fill="#d4ebff" fill-opacity=".51373"> <path d="m417.8 870.94 68.995 4.3e-4q0 40.429 0 80.858-34.498 1e-4 -68.995 3.6e-4 0-40.43 0-80.859"/> </g> <g fill="#8795a2"> <path d="m452.3 913.54c9.8123-1e-3 13.343-9.8251 14.268-17.896 1.1388-9.9424-3.5626-17.425-14.268-17.425-10.703 0-15.406 7.4823-14.268 17.425 0.92534 8.07 4.4548 17.897 14.268 17.896z"/> <path d="m478.84 936.93c-0.10748-3.1316-0.47439-6.2776-1.0209-9.3606-0.6621-3.7346-1.5049-9.2101-4.7655-11.643-1.8859-1.4072-4.3279-1.8689-6.4866-2.7175-1.0507-0.41283-1.9919-0.82293-2.8754-1.2896-2.9814 3.2697-6.8693 4.9801-11.397 4.9804-4.5263 0-8.4138-1.7105-11.395-4.9804-0.88338 0.46694-1.8247 0.8768-2.8753 1.2896-2.1588 0.84864-4.6008 1.3103-6.4862 2.7175-3.2609 2.4339-4.1037 7.909-4.7657 11.643-0.54656 3.083-0.9137 6.229-1.0209 9.3606-0.083 2.4259 1.1148 2.7658 3.144 3.4983 2.5411 0.9164 5.1647 1.5965 7.8058 2.1544 5.1008 1.0768 10.359 1.905 15.594 1.942 5.2354-0.03724 10.493-0.8652 15.594-1.942 2.6409-0.55746 5.2647-1.238 7.8056-2.1544 2.0302-0.73234 3.2278-1.0724 3.1448-3.4983z"/> </g> <g fill="#bfc9d2" fill-opacity=".99608"> <path d="m433.07 1271.5 268.24 0.0012q0 14.51 0 29.02-134.12 0-268.24 2e-4 0-14.51 0-29.022"/> </g> <g fill="#bbdfff"> <path d="m447.33 1247.7 115.04 9e-4v14.288l-115.04 8e-4v-14.29z"/> <path d="m447.33 1226.1 178.22 0.0011q0 7.144 0 14.289-89.108-4e-4 -178.22-4e-4 0-7.145 0-14.29z"/> <path d="m447.33 1204.5 68.919 5e-4 68.919-1e-4q0 7.1438 0 14.289-68.919 3e-4 -137.84 8e-4 1.4e-4 -7.1453 1.4e-4 -14.29z"/> <path d="m447.33 1183 87.403-5e-4 87.403 8e-4q0 7.1438 0 14.289-87.403 3e-4 -174.81 3e-4 0-7.145 0-14.29z"/> <path d="m445.83 1163.3 115.04 9e-4v14.288l-115.04 6e-4v-14.29z"/> <path d="m445.83 1141.7 89.108 7e-4h89.108q0 7.1445 0 14.29-89.108-3e-4 -178.22-3e-4 0-7.1454 0-14.29z"/> <path d="m445.83 1098.6 87.404-1e-3 87.403 6e-4q0 7.1451 0 14.289-87.403-2e-4 -174.81 6e-4 0-7.1451 0-14.29z"/> <path d="m445.83 1120.2 68.919 9e-4 68.918-6e-4q0 7.1449 0 14.29-68.918 0-137.84 3e-4 0-7.1453 0-14.29z"/> </g> <g fill="#848c93"> <path d="m424.72 1100.4 11.278 1e-3q0 5.1655 0 10.331-5.639 5e-4 -11.278 5e-4 0-5.166 0-10.332z"/> <path d="m424.72 1121.8 11.278 5e-4v10.331l-11.278 5e-4v-10.332z"/> <path d="m424.72 1143.1 5.6392 5e-4 5.639-5e-4q0 5.1657 0 10.331-5.639 0-11.278 2e-4 0-5.1659 0-10.332z"/> <path d="m424.72 1164.4 11.278 5e-4 -1e-4 10.331-11.278 5e-4v-10.332z"/> <path d="m424.72 1184.8h5.6392l5.639 5e-4q0 5.1655 0 10.331-5.639 2e-4 -11.278 2e-4 0-5.166 0-10.332z"/> <path d="m424.72 1248.8 11.278 1e-3v10.33l-11.278 3e-4 6e-5 -10.332z"/> <path d="m424.72 1227.5 5.6393 0.0012 5.639-0.0012q0 5.1663 0 10.332-5.639 0-11.278 5e-4 -6e-5 -5.1657-6e-5 -10.332z"/> <path d="m424.72 1206.1 11.278 2e-4v10.331l-11.278 2e-4 6e-5 -10.332z"/> </g> <g fill="#ffb79f"> <path d="m830.25 1159.6c3.1752 1.4776 5.0107 4.4677 5.6559 9.3363 0.1583 1.234 0.3778 2.5284 0.5039 2.8893 0.12645 0.3607 0.2202 1.0288 0.2319 1.4889 0.01174 0.4602 0.23794 1.5871 0.5026 2.5034 1.0496 3.5929 1.3642 5.0249 1.4259 6.6516 0.0421 0.9483 0.1661 2.3693 0.2805 3.1858 0.0913 0.8127 0.1548 1.6437 0.12073 1.8304-0.03823 0.2098 0.06787 0.8079 0.22987 1.3682 0.1616 0.5602 0.27734 1.112 0.25146 1.2521-0.02586 0.1394 0.07484 0.6402 0.24951 1.1306 0.15137 0.4859 0.27663 1.3772 0.23923 1.9727-0.036 1.6329 0.2322 4.6229 0.52884 5.7624 0.24746 1.0102 1.1405 4.4054 1.8021 6.9624 0.19764 0.7594 0.45644 1.5787 0.58484 1.7956 0.6986 1.3094 1.2361 6.1098 1.0228 9.2287-0.07224 1.0472-0.073 2.2281 0.0026 2.6039 0.0709 0.399 0.05016 1.1665-0.053 1.7263-0.2666 1.4452-0.3596 8.2267-0.11644 9.2599 0.10498 0.4772 0.23217 1.489 0.28954 2.2231 0.0574 0.7337 0.15345 2.1737 0.2063 3.196 0.07593 1.0264 0.1942 2.0852 0.291 2.3437 0.1957 0.639 0.04726 4.9749-0.275 7.6398-0.3015 2.5477-0.3275 4.5202-0.1249 5.9075 0.0878 0.5704 0.1006 1.4166 0.0144 1.8833-0.08604 0.4659-0.09873 1.4524-0.0415 2.1858 0.0574 0.7344 0.0194 2.5107-0.1217 3.9314-0.1183 1.4244-0.1827 2.6903-0.11534 2.8472 0.07788 0.2315 0.04824 1.046-0.37986 6.2465-0.28945 3.9243 0.15183 5.4524 1.5877 5.3792 0.58521-0.0364 2.5011-1.2744 2.57-1.6481 0.0211-0.1162 0.4149-0.5497 0.874-0.9474 0.45875-0.3974 1.1455-1.1147 1.5432-1.5716 1.21-1.4645 2.993-3.8117 3.2422-4.248 0.13624-0.2161 0.36793-0.5589 0.5188-0.724 0.9611-1.0282 2.8259-4.0836 3.3132-5.4159 0.20055-0.5657 0.58205-1.4594 0.87645-2.0081 0.7904-1.5418 2.846-7.0696 3.0952-8.4217 0.1481-0.6721 0.48745-1.5975 0.7688-2.0763 1.6196-2.6425 2.124-4.0681 2.5623-7.3625 1.0581-7.5674 1.3197-10.557 1.0847-11.637-0.1299-0.6027-0.20264-2.0385-0.18323-3.1917 0.04893-1.7031 0.16528-2.3325 0.6449-3.4978 0.72583-1.8427 3.1445-5.1575 4.7788-6.5681 2.121-1.827 4.8703-2.3565 7.001-1.361 1.0403 0.5049 2.7038 2.5957 2.5838 3.2484-0.03895 0.2098 0.06994 0.929 0.21447 1.5823 0.25183 0.9867 0.20947 1.8711-0.21177 5.072-0.29775 2.1389-0.49905 4.5366-0.43093 5.3451 0.04453 0.8035-0.00927 2.1435-0.16443 2.9832-0.15454 0.8393-0.21104 2.3237-0.13074 3.3264 0.0803 1.0035 0.0663 2.2546-0.0281 2.7671-0.07566 0.5409-0.1457 1.4438-0.1367 2.0483 0.02 0.6786-0.26574 2.0968-0.7474 3.7918-0.6393 2.2932-0.76224 3.0898-0.8141 5.2017-0.02834 2.1164-0.3988 4.3868-2.3056 14.86-2.6583 14.553-2.0288 12.837-6.0995 17.005-2.8893 2.9872-3.1363 3.2788-4.3593 4.8133-0.5657 0.7151-1.6058 2.042-2.355 2.965-0.7251 0.927-1.4929 1.8219-1.718 1.9976-0.22094 0.1522-0.4122 0.4059-0.4341 0.5224-0.0256 0.1403-0.3912 0.5546-0.7994 0.9375-0.63747 0.5819-2.883 3.0845-4.729 5.2516-0.58486 0.688-3.4016 4.4595-4.5806 6.1469-0.983 1.4096-1.8884 3.0506-1.9956 3.6341-0.0476 0.2561-0.3141 0.7855-0.58666 1.2177-0.26794 0.4085-0.93334 1.925-1.4646 3.3702-0.87754 2.2728-1.0036 2.828-0.99439 4.0836 0.01709 0.823 0.01661 2.0039 0.01295 2.6785 5e-4 0.6509 0.0786 1.533 0.19213 1.9641 0.09461 0.4026 0.21363 1.1964 0.25877 1.7348 0.0452 0.5389 0.2079 1.7501 0.3897 2.7237 0.1865 0.9507 0.3321 2.255 0.3321 2.9059 0.0376 1.2364 0.5304 4.3168 0.78396 4.7733 0.09084 0.1613 0.33337 1.4596 0.53164 2.871 0.51694 3.7356 0.7071 4.6621 0.94956 5.3093 0.13514 0.3138 0.23294 0.9592 0.24438 1.4189 0.01172 0.4606 0.27806 1.763 0.5741 2.9031 0.31516 1.167 0.52646 2.2425 0.49656 2.4054-0.0301 0.1633 0.08987 0.6915 0.2688 1.1586 0.1792 0.4673 0.3073 0.9483 0.28554 1.0654-0.08144 0.4429 1.8981 7.7505 2.1668 7.9931 0.08056 0.0869 0.1703 0.5135 0.1631 0.9459 0.0466 0.9249 0.6279 3.3949 0.9574 3.9615 0.12864 0.2166 0.26145 0.6753 0.2943 1.0191 0.0333 0.3433 0.23314 0.9587 0.4016 1.3515 0.192 0.397 0.8716 2.5954 1.5149 4.8595 1.7389 6.1308 2.3168 7.4423 6.0039 13.594 4.6085 7.6964 6.3164 9.6746 9.8002 11.57 1.0314 0.5517 2.3443 1.2759 2.9541 1.6294 0.5908 0.326 1.927 1.0548 2.9588 1.6063 1.0267 0.5749 1.9985 1.188 2.1782 1.3902 0.15235 0.2207 0.40615 0.4121 0.52259 0.4337 0.11682 0.0219 1.036 1.1796 2.0382 2.5455 0.99755 1.3892 1.8744 2.5153 1.9678 2.5321 0.0701 0.0132 0.6381 0.986 1.265 2.162 0.60817 1.1487 1.195 2.1487 1.2794 2.2127 0.08495 0.0634 0.7013 1.1657 1.3488 2.4908 0.6526 1.3009 1.6192 3.1188 2.1532 4.0128 0.5346 0.8943 1.0434 1.9284 1.1693 2.2891 0.40442 1.2071 3.359 6.8869 4.4579 8.5118 0.45205 0.6862 1.1193 1.7733 1.4784 2.4428 1.0957 2.0337 3.5073 19.266 0.9153 19.03-2.6146-0.2151-4.0969-1.4498-4.2125-1.4237-9.6278 2.1672-9.6627-7.4601-39.414-12.945-28.91-5.3302-52.558-9.786-52.541-9.8798 0.02135-0.1164-0.173-0.3689-0.45045-0.5647-0.24951-0.215-1.3228-1.0637-2.3488-1.9038-1.0497-0.8442-2.5796-2.0908-3.4268-2.7293-0.8424-0.6612-1.6294-1.3609-1.7389-1.5501-0.1101-0.1887-0.2707-0.3628-0.3874-0.3844-0.16324-0.03-1.223-0.9487-2.4735-2.1438-2.1327-2.0322-3.2368-3.1037-3.4881-3.4396-0.4503-0.5651-3.7014-3.0689-4.6861-3.6118-0.48317-0.2578-1.1121-0.6394-1.4037-0.886-0.31545-0.2507-0.6862-0.464-0.8029-0.4856-0.2563-0.0467-3.7956-2.5553-4.7986-3.3909-0.29214-0.2469-1.1345-0.9086-1.8963-1.4828-0.7622-0.5745-1.7608-1.4339-2.2328-1.8821-0.4674-0.4722-1.1552-1.0569-1.5597-1.3486-0.38514-0.2641-1.1151-0.8803-1.6293-1.3611-0.51414-0.4807-1.4469-1.3037-2.1012-1.8096-0.6494-0.53-1.587-1.3295-2.0777-1.8058-0.73194-0.7374-2.1538-1.9156-4.1541-3.4897-1.181-0.9167-6.6341-4.8152-6.7972-4.8451-0.1165-0.022-0.3008-0.2005-0.4064-0.4127-0.12854-0.2162-0.48645-0.4992-0.7955-0.6528-0.3134-0.1302-1.7278-1.09-3.1519-2.1236-1.4206-1.0578-2.8113-2.0137-3.0741-2.1587-0.2859-0.1488-0.93565-0.6782-1.4452-1.1819-0.50595-0.5271-1.1148-1.1459-1.3606-1.3839-0.85853-0.8334-2.0578-2.0426-3.0688-3.0968-0.5713-0.5633-1.5253-1.5352-2.1388-2.1303-0.6177-0.5717-1.4957-1.4327-1.944-1.877-0.44883-0.4445-1.147-1.1038-1.5423-1.4417-1.7522-1.4802-5.1781-4.4741-6.0222-5.2563-0.51415-0.4807-1.2546-1.1721-1.6505-1.5099-0.70703-0.6127-2.4391-2.3305-3.0547-3.0463-0.15635-0.1975-0.97461-1.1198-1.7844-2.089-0.81394-0.9452-1.755-1.9867-2.081-2.3118-1.3732-1.3143-1.6799-1.6119-2.2214-2.0734-0.31533-0.2509-0.87173-0.7633-1.2588-1.1478-0.36804-0.3572-1.4137-1.2254-2.3215-1.9229-1.0963-0.8529-2.065-1.8749-2.925-3.0941-1.6164-2.3471-1.8777-3.9382-1.3686-8.401 0.21194-1.6724 0.2859-3.2503 0.21646-3.5278-0.0968-0.2588-0.0968-1.1752-0.03956-2.0083 0.14894-1.853-0.10436-5.0574-0.45275-5.6524-0.12439-0.2396-0.27942-0.9676-0.34975-1.6315-0.4375-4.9505-0.69725-6.4207-1.3625-8.3033-0.83194-2.4194-2.3601-7.8602-2.6802-9.655-0.9625-5.2395-0.8292-6.8788 0.5925-8.1835 0.8947-0.7993 2.6584-1.342 3.7307-1.1444 0.81566 0.1501 2.6496-0.3794 2.9857-0.8958 0.12795-0.1696 0.65415-2.242 1.1859-4.603 1.0373-4.5825 2.5472-9.6317 3.5021-11.674 0.31971-0.6883 0.63586-1.618 0.71326-2.0378 0.2749-1.4926 1.9612-3.4477 4.3468-5.0091 1.2102-0.8132 2.317-1.4531 2.4332-1.4313 0.1398 0.0256 0.7172-0.2295 1.3311-0.5503 0.58604-0.3017 1.3568-0.6905 1.6709-0.8249 0.3142-0.1352 1.5708-0.6748 2.7765-1.2004 3.719-1.6043 4.4959-1.895 5.6627-2.2103 0.47765-0.1043 1.821-0.4596 2.9414-0.7834 1.1393-0.2964 2.1727-0.5396 2.3126-0.5139 0.2566 0.0475 3.5772-0.8352 5.8862-1.5907 0.76805-0.2444 2.7268-0.7994 4.3246-1.2281 1.6021-0.4519 3.3568-0.9481 3.8662-1.0951 1.2313-0.4 2.9328-0.0862 4.6586 0.8829 1.5336 0.8371 3.5634 2.2483 4.0182 2.7899 0.3363 0.3994 4.1652 3.2991 6.6609 5.0611 0.9398 0.6555 1.8568 1.3069 2.0218 1.4577 0.16506 0.1508 0.92713 0.7254 1.6931 1.2762 0.76648 0.5512 1.6131 1.1895 1.9093 1.4127 0.29224 0.2464 1.1723 0.9636 1.9912 1.6207 0.8004 0.6298 1.8415 1.5205 2.2899 1.9649 1.6286 1.6264 3.0048 2.5313 4.1664 2.7696 1.4137 0.3086 1.9909 0.0534 4.375-1.894 1.6211-1.3403 2.2553-2.1633 3.3764-4.5845 0.59473-1.2643 1.286-6.3202 1.0061-7.288-0.13674-0.4349-0.51819-2.2892-0.85314-4.1349-0.35804-1.8502-0.8439-4.1819-1.1007-5.1447-0.252-0.987-0.49074-2.0434-0.52834-2.3641-0.03746-0.3201-0.34912-1.2456-0.68236-2.0543-0.8535-2.0378-0.88307-2.1394-1.7974-5.4179-1.0954-3.8664-1.3205-4.6069-1.6856-5.3735-0.20643-0.4477-0.48256-2.09-0.73963-4.3552-0.09153-0.8124-0.18469-1.7458-0.24097-2.0936-0.12266-1.0353-1.4376-5.2793-1.8914-6.0863-0.23473-0.429-0.66686-1.3527-0.92834-2.0274-0.28052-0.7025-0.67666-1.6919-0.9126-2.2417-1.027-2.4069-1.5182-3.5339-1.6616-3.802-0.09524-0.1379-0.25964-0.5542-0.36254-0.9105-0.1074-0.3331-0.49146-1.1272-0.86353-1.7259-0.65847-1.1342-1.4118-2.6711-2.0209-4.2058-0.8701-2.2094-1.3833-3.2204-2.1603-4.4968-1.329-2.0766-2.8904-5.1131-4.0755-7.8389-1.1281-2.643-2.1941-4.5751-4.18-7.6652-0.67185-1.064-1.6748-2.816-2.2447-3.9095-3.6846-7.2128-5.2411-9.886-5.801-9.9893-0.30249-0.0559-1.9529-3.3975-2.23-4.5098-0.17237-0.6342-0.46397-1.7968-0.65737-2.58-0.19334-0.7828-0.3313-1.6039-0.2966-1.7906 0.03417-0.1864-0.0421-0.948-0.17006-1.6944-0.53334-2.9916 0.2826-7.156 1.7937-9.3367 2.2895-3.2664 7.5489-4.2015 10.272-1.8429 1.1025 0.9504 2.8611 3.1792 3.4752 4.4258 0.26365 0.5305 1.1935 2.0278 2.0403 3.317 0.8429 1.3125 1.9709 3.0393 2.4994 3.8359 0.547 0.8239 1.4642 2.1263 2.0754 2.8659 0.60654 0.7626 1.5488 2.1898 2.066 3.1772 0.5402 0.9915 1.6556 2.7882 2.4924 4.0037 0.81786 1.187 1.9374 2.9603 2.4588 3.9241 0.8888 1.5865 2.3188 3.8991 3.5315 5.6899 0.2662 0.3865 0.6062 1.0277 0.75156 1.4163 0.16871 0.3927 0.51099 0.8896 0.78394 1.1088 1.2148 0.9957 4.2184 4.0563 5.1191 5.1862 2.9066 3.7188 6.1028 8.7435 6.935 10.898 0.7989 2.0759 4.1255 7.4384 8.7086 14.093 2.8527 4.1424 3.621 5.4652 4.681 8.2159 0.1266 0.3606 0.4458 1.5049 0.66604 2.5338 1.07 4.6573 1.5762 5.8351 2.5086 6.0074 0.3734 0.0686 0.8187 0.0057 0.993-0.1548 0.5696-0.4735 0.96194-2.2095 0.98-4.3998 4e-4 -1.1811 0.20716-3.2162 0.45203-4.5453 0.24073-1.3056 0.39673-2.675 0.31727-3.0274-0.0565-0.3481 0-1.8322 0.1268-3.3038 0.1264-1.4708 0.19107-3.6528 0.14114-4.8193-0.02244-1.1854 0.01233-2.553 0.10706-3.066 0.0946-0.5127 0.1316-1.7597 0.06005-2.8096-0.05285-1.0226-0.09165-3.2957-0.06615-5.0028 0.04626-3.3903 0.0211-4.4313-0.13123-5.5685-0.06641-0.4224-0.20752-1.7501-0.34644-2.9574-0.11143-1.2252-0.32253-2.5658-0.45493-3.0246-0.1133-0.4308-0.2323-1.2242-0.25894-1.7355-0.05616-2.1796-0.28016-5.0177-0.41696-5.4524-0.09695-0.2592-0.122-1.3004-0.08536-2.2822 0.06396-1.0008 0.01796-2.1903-0.06774-2.6399-0.1135-0.4312-0.16004-1.3555-0.13746-2.0024 0.03589-0.7166-0.28244-2.3907-0.77854-4.1452-0.5535-1.838-0.8571-3.4611-0.8334-4.3727 0.0105-0.8419 0.4685-3.4575 1.1079-6.4012 1.0384-4.8471 1.096-5.0298 1.9793-6.2889 1.1296-1.5517 3.1615-2.7681 5.3786-3.1555 1.5445-0.2698 2.0428-0.2256 3.1293 0.2877l0.00354 1e-3zm-84.442 129.95c-0.99074 0.2754-1.9861 0.5741-2.1941 0.6565-1.5175 0.5156-3.0939 0.8276-4.1264 0.8061-2.1076-0.0752-3.3266 0.5197-4.6158 2.2832-1.2486 1.6741-2.3342 3.3784-2.3945 3.7048-0.03006 0.1636-0.39017 0.9405-0.8162 1.6817-0.8009 1.468-1.8296 2.3386-3.6636 3.1334-2.4304 1.0227-4.8 2.3698-5.0304 2.8335-0.58618 1.218 0.18076 2.4199 2.7166 4.3578 1.5851 1.2086 2.9183 3.2626 4.4596 6.8009 0.2317 0.573 1.499 2.5908 2.7646 4.4875 1.2656 1.897 2.4951 3.8595 2.7167 4.358 0.8473 1.9403 1.2596 3.3665 1.1606 3.9028-0.24902 1.3524-0.0664 2.0609 0.68909 2.8028 0.42906 0.4167 1.0684 0.8722 1.4243 1.034 0.56128 0.2242 1.1159 0.6156 3.7978 2.6771 0.33424 0.2784 0.93324 0.8225 1.316 1.231 0.38245 0.4077 0.99205 1.0268 1.3645 1.3606 0.37232 0.3337 1.2966 1.2033 2.0756 1.9494 1.7132 1.6902 5.1137 4.5591 5.417 4.615 0.1399 0.0256 0.34266 0.2319 0.47156 0.4484 0.38221 0.6729 3.0151 1.0379 4.5618 0.6241 1.1162-0.3004 3.7495-1.7679 6.0921-3.3609 0.36325-0.2708 1.4272-0.9424 2.326-1.4999 0.8981-0.5573 2.6505-1.8253 3.8874-2.7793 1.2172-0.9807 2.3666-1.8533 2.5277-1.9441 1.23-0.7862 5.6806-5.0519 6.4811-6.2544 0.61916-0.8749 0.80276-2.2629 0.40576-2.9874-0.177-0.3456-0.7637-1.6111-1.2886-2.817-0.5249-1.2056-1.044-2.3133-1.1302-2.4982-0.908-1.6138-1.6969-3.3504-2.0971-4.5816-0.25853-0.8193-0.58349-1.6745-0.70776-1.9144-0.1521-0.2209-0.2406-0.5265-0.21912-0.6431 0.099-0.5362-2.528-4.8535-4.0105-6.6213-0.1986-0.2297-0.80969-0.969-1.3404-1.6216-0.9853-1.1942-2.7712-2.7527-3.2607-2.8431-0.55983-0.1031-5.9064-4.0538-7.4445-5.5187-0.65586-0.6271-1.2591-1.1482-1.3523-1.1655-0.0698-0.0129-0.46555-0.351-0.857-0.7125-0.4102-0.389-1.5568-1.4924-2.581-2.4764-3.0718-2.9532-4.0644-3.7146-5.0392-3.9189-0.37315-0.0685-1.4912 0.1108-2.4866 0.4097l0.0035 6e-4z"/> </g> <g fill="#fff"> <path d="m798.9 1474.8 99.734-38.448-24.236-62.867-1.5621-4.0514-99.735 38.448 25.799 66.918"/> </g> <g> <path d="m813.95 1345.9-118.91-67.699-8.2769 14.336 119.58 66.893 7.088-6.0071z"/> <path d="m776.26 1447.7 57.393-22.758 57.393-22.757q36.02 76.878 72.04 153.76-69.126 0.0452-138.25 0.0901l-48.575-108.33"/> <path d="m688.19 1293.5v2e-4l-15.957-18.047q11.816 1.791 23.631 3.5821l-7.6743 14.465"/> </g> <g fill="#ffb193"> <path d="m502.25 1334.9-0.19142 0.0044q-0.2655-0.169-4.2113 1.1462l-6.5224 0.7582q-1.1239 0.2156-1.465 0.6882-0.601 0.5583-1.4864 2.3012-3.6245 8.167-5.7085 11.632-2.948 5.1074-4.9023 7.4966-2.7348 6.1033-3.1807 10.685-0.24012 1.8557-0.20447 1.96l0.1759 5.5463-0.58447 9.8495q0.3197 1.7625 1.6014 2.5821 1.5482 1.0027 7.0696 3.0746 8.9631 3.0632 19.999 4.2308 3.1495-0.4377 4.6467-2.2464 2.5435-4.1916 6.7858-13.894 2.2212-3.9084 3.2849-4.9748 0.39697-0.6275 0.59474-1.1583 0.2762-0.7272 0.1024-1.4409-0.9492-1.7636-0.9382-2.5217-0.18643-1.4321-0.04935-3.6267l1.7505-9.3351q0.40526-6.1943 0.79136-7.0088 0.0525-0.375 0.579-1.7544l1.7671-3.4734q0.3873-1.2192 0.3237-1.3625 0.1089-1.1751-1.0237-1.7466-1.0936-0.4524-7.2021-0.7567-1.5087-0.2952-2.0117-0.6113-0.89276-0.3118-3.8381-3.073-1.595-1.1426-2.9044-1.9324-1.6242-1.0435-3.048-1.0382m-76.655-121.98 0.38093 8e-3q9.3108 1.6535 10.743 16.269-4.6551 25.174-6.1138 64.726-0.08545 5.1495 2.1348 12.479l0.9433 14.575 2.2044 12.792q0.73987 2.4148 3.2378 6.0616 5.0546 5.69 11.213 3.9581l15.255-25.452q2.4613-3.9755 5.0194-4.9555 27.351-4.9538 40.77-1.5019 2.7364 0.9458 3.9387 2.3421 4.3928 4.313 12.906 16.411 8.1877-2.1969 9.4189 0.9437 0.74184 0.7327 1.9184 6.3198 0.93201 14.204 3.6427 22.666 2.3442 7.4424 5.6326 13.335 0.5431 1.1267 0.5988 3.3208-0.02395 1.7903-1.1362 4.6233l-19.816 43.622q-10.693 15.188-21.522 36.982l-6.7545 10.088-10.257 20.427-54.565 34.887-9.1888 7.3581-14.396 15.537q-5.7725 1.5625-5.4315 2.8567l-4.359 0.0011q-3.3221-7.3763-4.7332-16.905l3.3559-29.301q2.3404-8.9226 2.5413-8.0617 9.1357-10.906 8.7369-11.93 1.834-4.1102 3.5262-19.358-1.46-32.555-9.8081-62.154 0.47571-4.1997-10.511-13.278l-34.036-18.651q-25.488-37.316-30.93-56.958 2.9842-9.862 14.77-1.536 1.9372 1.445 2.8493 3.1279 1.121 5.3981 8.6534 17.772l10.794 11.739q14.956 13.386 21.535 12.433 0.77417-1.2258-0.08045-3.1665l-13.72-30.83q-1.7984-9.1079-10.124-27.595l-2.2308-15.602-5.2243-19.119-2.5299-14.246q-0.34827-3.9114 0.19299-5.1487 1.7643-6.91 9.3018-5.4763 3.2467-0.6011 9.0141 9.5743l1.8013 3.3294 1.4337 8.1622 10.797 32.812q6.5609 15.708 10.319 21.833 1.4618 2.6692 2.6311 1.9138 0.9574-0.4861 0.87964-1.9058-1.423-9.9481-0.76596-11.486 5.0795-23.599 4.8249-28.689 1.4297-9.4324 5.3047-16.76 3.6239-23.259 7.0288-37.815 0.99463-7.1098 7.9848-7.407z"/> </g> <g fill="#fff"> <path d="m506.07 1468.9q6e-5 12.933-6e-5 25.865-49.871 5e-4 -99.743 5e-4 1.4e-4 -12.932 8e-5 -25.865l99.743-0.0011z"/> </g> <g> <path d="m509.01 1485.2 0.8482 68.394-114.52 4e-4 -0.83102-66.973 114.5-1.4213z"/> </g> <g fill="#000c11"> <path d="m520.28 1121.4c-0.4641 0-0.848 0.0041-1.0919 0.0141-6.1956 0.2697-11.769 1.3569-17.482 3.417-6.757 2.4391-12.946 6.0921-18.392 10.854-1.0233 0.9012-1.0839 0.951-2.1517 1.9942-2.5886 2.5265-4.5829 4.8392-6.6903 7.7609-5.596 7.7807-9.1377 16.79-10.368 26.412-0.35303 2.7112-0.55383 6.9732-0.45303 9.4015 0.30261 7.0703 1.5723 13.185 4.0364 19.442 4.1765 10.587 11.638 19.932 21.057 26.364 8.1149 5.5491 17.418 8.906 27.246 9.8378 1.2284 0.1157 4.7401 0.2554 6.2867 0.2554 0.1625 0 0.3036-0.0013 0.41786-0.0047 1.9183-0.0539 3.8193-0.1671 5.0301-0.3058 0.34035-0.0395 0.9165-0.1096 1.2764-0.1489 4.641-0.5412 10.302-2.0555 14.909-3.9867 2.7005-1.1268 5.0315-2.313 7.6308-3.8803 14.028-8.4379 23.86-22.628 26.873-38.794 0.58363-3.1336 0.76463-4.8865 0.90393-8.7012 0.13635-3.7428 0.0925-5.2306-0.2472-8.424-1.5437-14.52-8.6082-27.964-19.718-37.539-4.5692-3.9342-9.7388-7.1339-15.33-9.4887-5.2256-2.1982-11.026-3.6607-16.566-4.189-0.68227-0.064-1.3969-0.1289-1.5917-0.1492-0.739-0.0737-3.774-0.1396-5.5845-0.1396zm1.2245-20.232c2.0996 0 4.2235 0.0589 5.7805 0.1783 4.7643 0.3692 10.173 1.2899 14.413 2.4545 1.8132 0.4963 4.1083 1.1992 5.1892 1.584 6.4283 2.2811 11.334 4.6761 16.971 8.2773 2.1275 1.3616 5.5044 3.851 7.6172 5.6159 4.0167 3.3532 8.2947 7.7594 11.377 11.704 5.069 6.4941 8.9454 13.342 11.752 20.758 3.1629 8.361 4.7805 16.731 5.0273 26.06 0.043 1.6827-0.1522 7.0404-0.3153 8.6573-0.75927 7.416-2.1691 13.544-4.624 20.102-3.2068 8.5847-7.8673 16.459-13.919 23.512-3.928 4.583-8.9517 9.1838-13.797 12.638-4.5974 3.2809-8.7981 5.6892-13.88 7.9549-5.5389 2.4636-11.137 4.2218-17.077 5.3486-3.8201 0.7273-8.0216 1.1936-11.767 1.3049l-0.66553 0.0218-0.20117 5.5195-0.20157 5.5268 1.6795 0.0613c1.2823 0.0465 1.7696 0.0902 2.0598 0.1723 1.3221 0.3872 2.3912 1.4563 2.7799 2.7734 0.157 0.521 0.15637 0.5405 0.0995 2.6438-0.0297 1.1655-0.9137 26.312-1.9524 55.887-1.6631 47.065-1.9096 53.829-2.0086 54.223-0.13754 0.5554-0.57164 1.3742-0.95129 1.7774-0.35962 0.3845-0.89441 0.7561-1.424 0.9778-0.4404 0.1895-0.57983 0.2822-1.7847 0.2822-1.1687 0-3.3393-0.0871-7.7587-0.2581l-8.1817-0.3177-0.42993-0.185c-0.64172-0.2779-1.0991-0.6011-1.5376-1.0926-0.43872-0.4917-0.67187-0.8847-0.88958-1.5249l-0.1471-0.4353 0.33612-10.482c0.19068-5.7683 1.0795-31.046 1.9826-56.179l1.6393-45.697 0.1654-0.424c0.46765-1.2088 1.4124-2.0872 2.6589-2.4908 0.3092-0.1008 0.43995-0.1369 1.0029-0.1369 0.28966 0 0.6936 0.0097 1.2954 0.0249l1.8172 0.0403-0.02444-0.5877c-0.00756-0.3259 0.0636-2.8132 0.16234-5.5212l0.1796-4.9211-1.156-0.1206c-1.3311-0.1333-2.9587-0.3684-4.9731-0.7226-1.3798-0.239-1.7677-0.3184-3.688-0.7468-5.3861-1.1999-11.204-3.2372-16.412-5.7474-1.2559-0.5996-4.3572-2.2509-5.3715-2.8483-1.187-0.7022-1.5693-0.9374-2.2957-1.3942-10.526-6.641-19.367-15.71-25.711-26.37-2.4935-4.1975-4.6365-8.7143-6.3009-13.299-2.6592-7.3315-4.2073-15.112-4.5575-22.849-0.18943-4.2764-0.02561-8.7742 0.47855-12.954 1.829-15.31 8.2094-29.769 18.317-41.505 6.1325-7.1224 13.514-13.117 21.643-17.592 6.6848-3.6802 13.287-6.1709 20.918-7.9005 1.6892-0.3816 4.5032-0.8655 6.553-1.1297 1.3558-0.1787 2.01-0.2461 4.1225-0.443 1.4658-0.1364 3.7114-0.2055 5.9857-0.2055z"/> </g> <g fill="#ffb193"> <path d="m526.98 1325.7q1.7938 0 3.8275 0.7932 6.7774 3.5995 9.5028 17.046 2.8294 13.158 4.023 42.406l-38.774 12.82 9.5137-26.6q-0.26525-12.551 0.31617-23.545 0.77319-8.6315 1.2162-9.8276 0.58824-2.9401 1.49-5.3036 3.2638-7.7886 8.885-7.7887z"/> </g> <g> <path d="m188.88 1424.3-111.76 5e-4 -1.5e-4 -181.15 111.76 5e-4 9e-5 181.15zm-64.576 18.394c0-4.98 3.9996-9.0208 8.9345-9.0208 4.9365 0 8.9346 4.0403 8.9346 9.0208 0 4.979-3.9979 9.0261-8.9346 9.0261-4.9347-0.0066-8.9346-4.0471-8.9346-9.0261m72.074 8.1875h0.01514l4e-5 -217.1v-0.0017-0.0438l-0.0036 9e-4c-0.02353-4.9573-4.0452-8.9689-9.0106-8.9689-0.0354 0-0.06408 0.0035-0.09613 0.0035v-0.0035l-20.247 8e-4 -59.069-8e-4 -29.345 7e-4c-4.9586 0.0017-8.9768 4.0133-9.0038 8.9672l-0.00177 8e-4 1.34e-4 217.14 0.013366 5e-4c-0.00317 0.0942-0.013366 0.1867-0.013366 0.2844 6.1e-5 4.8577 4.0826 8.7966 9.1204 8.7966 0.07428 0 0.14679-0.0095 0.22131-0.0122v0.0122l108.55 1e-3v-1e-3c4.9012 0 8.8892-3.9372 8.8889-8.7961 0.00177-0.096-0.01019-0.1907-0.01337-0.2832"/> </g> <g fill="#fff"> <path d="m188.88 1243.1 9e-5 181.15-111.76 5e-4 -1.5e-4 -181.15z"/> </g> <g fill="#a19a89"> <path d="m133.24 1433.6c4.9365 0 8.9346 4.0403 8.9346 9.0208 0 4.979-3.9979 9.0261-8.9346 9.0261-4.9347-0.0066-8.9346-4.0471-8.9346-9.0261 0-4.98 3.9996-9.0208 8.9345-9.0208z"/> </g> <g> <path d="m612.56 1259.7v5e-4l-3.9368 39.387q41.424-31.48 82.848-62.96-36.087 22.941-72.175 45.882l-6.7364-22.309"/> </g> </g> </svg>